<?xml version="1.0" standalone="no"?>
<!DOCTYPE svg PUBLIC "-//W3C//DTD SVG 1.1//EN" "http://www.w3.org/Graphics/SVG/1.1/DTD/svg11.dtd" >
<svg xmlns="http://www.w3.org/2000/svg">
<metadata></metadata>
<defs>
<font id="uni_sans_book_italicitalic" horiz-adv-x="1267" >
<font-face units-per-em="2048" ascent="1548" descent="-500" />
<missing-glyph horiz-adv-x="489" />
<glyph unicode="&#xfb01;" horiz-adv-x="976" d="M4 -305q85 54 105 194q28 205 86 613.5t86 613.5q24 165 136.5 253.5t270.5 90.5l-16 -114q-109 0 -185.5 -61t-91.5 -169l-33 -237h230l-17 -115h-229q-21 -145 -61.5 -437t-61.5 -438q-26 -185 -166 -274zM700 0l148 1061h115q-33 -235 -74 -530t-74 -531h-115z M846 1321q6 38 36 65t68 27t62 -27t18 -65q-4 -38 -35 -65t-69 -27t-61.5 27t-18.5 65z" />
<glyph unicode="&#xfb02;" horiz-adv-x="1028" d="M4 -305q85 54 105 194q28 205 86 613.5t86 613.5q24 165 136.5 253.5t270.5 90.5l-16 -114q-109 0 -185.5 -61t-91.5 -169l-33 -237h230l-17 -115h-229q-21 -145 -61.5 -437t-61.5 -438q-26 -185 -166 -274zM729 328l158 1124h114l-157 -1124q-31 -222 178 -222l-16 -114 q-155 0 -227 88.5t-50 247.5z" />
<glyph horiz-adv-x="2048" />
<glyph horiz-adv-x="2048" />
<glyph unicode="&#xd;" horiz-adv-x="2048" />
<glyph unicode=" "  horiz-adv-x="489" />
<glyph unicode="&#x09;" horiz-adv-x="489" />
<glyph unicode="&#xa0;" horiz-adv-x="489" />
<glyph unicode="!" horiz-adv-x="600" d="M209 86q6 41 39 69.5t74 28.5t65.5 -28.5t18.5 -69.5q-4 -41 -37 -69.5t-74 -28.5t-66 28.5t-20 69.5zM289 381l149 1069h121l-149 -1069h-121z" />
<glyph unicode="&#x22;" horiz-adv-x="712" d="M281 983l65 467h123l-100 -467h-88zM563 983l66 467h123l-103 -467h-86z" />
<glyph unicode="#" horiz-adv-x="1464" d="M104 455l41 114h332l141 326h-368l41 117h379l190 436h129l-190 -436h327l191 436h131l-193 -436h324l-47 -117h-330l-139 -326h369l-46 -114h-376l-199 -457h-129l201 457h-330l-199 -457h-129l201 457h-322zM606 569h328l141 326h-327z" />
<glyph unicode="$" horiz-adv-x="1165" d="M86 256l117 49q28 -89 118.5 -143.5t210.5 -65.5l86 611q-39 9 -66.5 15.5t-65 17t-61 20.5t-56 25t-49.5 31t-41.5 38.5t-32 46.5t-20 56t-7 67.5t7.5 79.5q15 84 62.5 153t116.5 115t151 73t170 34l29 209h100l-29 -209q155 -9 274 -80.5t154 -192.5l-114 -49 q-27 89 -118 142t-212 61l-78 -557q40 -8 69.5 -15t67.5 -17.5t65.5 -22t59 -27t53 -34t43.5 -42.5t34 -53t20 -63.5t6.5 -77t-10.5 -91.5q-22 -116 -102.5 -203t-189 -131t-233.5 -51l-30 -208h-101l31 208q-157 11 -276 84t-154 197zM339.5 1046.5q-0.5 -24.5 4.5 -45 t13.5 -37.5t22.5 -32t29 -27t36.5 -22t41.5 -18.5t46 -16t49 -13.5t53 -12l76 537q-135 -11 -237.5 -79t-127.5 -183q-6 -27 -6.5 -51.5zM633 96q143 10 252 79.5t137 189.5q8 36 8 67t-5.5 56t-18.5 46.5t-29 38.5t-39.5 32t-46.5 25.5t-54 21t-59 17.5t-63 15z" />
<glyph unicode="%" horiz-adv-x="1529" d="M176 -82l1249 1618l93 -61l-1248 -1618zM217 1063q26 176 125 281.5t233 105.5q142 0 208 -103t40 -288q-24 -178 -124 -283.5t-234 -105.5q-145 0 -209.5 101t-38.5 292zM338 1063q-20 -145 15 -210t130 -65q183 0 222 271q39 274 -148 274q-93 0 -145 -64t-74 -206z M913 385q24 178 123 282.5t234 104.5q141 0 207.5 -102.5t40.5 -288.5q-26 -178 -125 -282.5t-232 -104.5q-147 0 -211.5 100.5t-36.5 290.5zM1032 385q-20 -145 15 -209.5t131 -64.5q182 0 221 270q20 139 -19 207.5t-129 68.5q-93 0 -146 -65t-73 -207z" />
<glyph unicode="&#x26;" horiz-adv-x="1288" d="M158 399q6 46 22.5 87.5t35 72.5t52 64.5t57.5 54t69.5 49.5t70.5 43t76 43q-34 48 -52.5 77.5t-42 75.5t-31 91t-1.5 90q21 146 138 232.5t265 86.5q131 0 215 -83.5t66 -213.5q-8 -58 -35 -108.5t-58 -85t-85.5 -71t-91.5 -56.5t-103 -53l299 -369l141 192l95 -49 l-168 -221l192 -260h-156l-116 156q-109 -124 -222 -188t-255 -64q-121 0 -212.5 49t-136.5 142.5t-28 215.5zM281 403q-18 -134 65 -217.5t223 -83.5q189 0 377 224l-342 411q-55 -30 -86 -48t-79 -52.5t-75 -65t-51.5 -75t-31.5 -93.5zM537 1151q-5 -36 4 -75t32.5 -81.5 t39 -66t44.5 -64.5q46 22 68 33t65.5 35.5t67.5 45t52.5 49.5t44 62.5t20.5 71.5q12 88 -38.5 144.5t-141.5 56.5q-95 0 -170 -60t-88 -151z" />
<glyph unicode="'" horiz-adv-x="415" d="M276 983l66 467h123l-90 -467h-99z" />
<glyph unicode="(" horiz-adv-x="532" d="M215 698q35 243 144 482t270 428l88 -66q-150 -161 -249 -390t-132 -454q-31 -229 8 -433.5t141 -414.5l-104 -61q-114 195 -156.5 434.5t-9.5 474.5z" />
<glyph unicode=")" horiz-adv-x="532" d="M-4 -209q151 162 251.5 391.5t131.5 452.5q66 467 -141 887l104 61q112 -192 152.5 -450t7.5 -498q-34 -242 -142 -481t-270 -428z" />
<glyph unicode="*" horiz-adv-x="858" d="M205 1145l43 94l289 -98l43 309h96l-43 -311l307 98l18 -98l-309 -92l152 -254l-84 -60l-158 256l-217 -256l-74 60l224 258z" />
<glyph unicode="+" horiz-adv-x="1271" d="M203 639l18 119h473l64 461h116l-63 -461h455l-19 -119h-454l-66 -465h-117l66 465h-473z" />
<glyph unicode="," horiz-adv-x="550" d="M90 -283l201 467h143l-223 -467h-121z" />
<glyph unicode="-" horiz-adv-x="681" d="M166 555l16 119h506l-16 -119h-506z" />
<glyph unicode="." horiz-adv-x="471" d="M154 86q6 41 38.5 69.5t73.5 28.5t65.5 -28.5t18.5 -69.5q-4 -41 -36.5 -69.5t-73.5 -28.5t-66 28.5t-20 69.5z" />
<glyph unicode="/" horiz-adv-x="757" d="M12 -37l842 1561l102 -37l-841 -1561z" />
<glyph unicode="0" horiz-adv-x="1230" d="M150 399l92 660q15 105 73 188t141.5 132.5t178 75.5t190.5 26q95 0 182 -26t156.5 -75.5t104.5 -132.5t20 -188l-92 -660q-15 -104 -73 -187t-141.5 -133t-178 -76t-189.5 -26q-96 0 -183.5 26t-156.5 76t-104 133t-20 187zM270 399q-11 -80 17 -140.5t83.5 -94 t121.5 -50t139 -16.5t143 16.5t135 50t110 94t56 140.5l92 660q10 65 -7 117.5t-52 86t-85 56t-103.5 32t-110.5 9.5q-73 0 -143.5 -16t-136 -49.5t-110.5 -94t-57 -141.5z" />
<glyph unicode="1" horiz-adv-x="665" d="M197 1104l378 348h123l-202 -1452h-119l180 1286l-283 -254z" />
<glyph unicode="2" horiz-adv-x="1128" d="M72 94l817 686q77 65 124 134t60.5 130.5t-1.5 117.5t-55 97.5t-106.5 67.5t-150.5 29q-137 4 -252 -54.5t-174 -160.5l-101 47q77 137 225 213.5t320 71.5q109 -3 196 -38.5t140.5 -92.5t75 -134.5t6.5 -160.5t-73.5 -174.5t-157.5 -174.5l-684 -575h784l-16 -121h-951z " />
<glyph unicode="3" horiz-adv-x="1183" d="M72 246l116 53q24 -68 91.5 -116t153.5 -67.5t182.5 -11t179 42t142.5 102.5t73 161q23 166 -60 245.5t-256 77.5h-121l17 113h121q293 0 327 244q10 71 -12.5 126t-69.5 86t-108 47.5t-130 10.5t-134 -24.5t-122.5 -57t-92.5 -88.5l-95 53q39 62 101.5 110.5t135 76.5 t153 38.5t156 2.5t142 -36.5t113.5 -74t69.5 -115.5t10.5 -155q-29 -204 -201 -297q218 -81 174 -385q-19 -125 -96.5 -219.5t-182 -143.5t-227.5 -62.5t-232.5 11t-196.5 90t-121 162.5z" />
<glyph unicode="4" horiz-adv-x="1101" d="M94 506l914 946h143l-135 -965h121l-15 -108h-121l-53 -375h-121l54 375h-709zM225 487h670l119 824z" />
<glyph unicode="5" horiz-adv-x="1196" d="M104 246l117 53q24 -68 91 -115t151.5 -64.5t179.5 -7t176.5 46t140.5 105.5t72 162q2 13 6 45t6 45q11 77 -13 136t-75.5 94t-118.5 52t-147 17q-111 0 -203.5 -21t-201.5 -69l-64 -4q16 112 51.5 365t51.5 364h897l-17 -121h-776q-18 -117 -66 -459q186 73 347 70 q98 -1 183 -26t152.5 -74t100.5 -132t20 -190q-2 -13 -6 -47t-6 -47q-19 -125 -96 -221t-181 -146.5t-225.5 -66t-230.5 7t-195.5 87t-120.5 161.5z" />
<glyph unicode="6" horiz-adv-x="1265" d="M164 406l90 641q15 102 72.5 184.5t141 133.5t182.5 77.5t202 25.5q163 0 288 -66.5t169 -189.5l-117 -55q-31 93 -128.5 143t-227.5 50q-110 0 -207.5 -32.5t-168.5 -104t-85 -169.5l-43 -311q80 95 196 138.5t246 43.5q103 -1 192.5 -28t157.5 -77.5t101 -132 t18 -183.5l-12 -88q-14 -102 -70 -184t-138.5 -133t-180 -78t-199.5 -27q-82 -1 -157 15.5t-138.5 51t-108 84t-65 119.5t-10.5 152zM285 408q-10 -74 17 -134t81 -96.5t125.5 -56t153.5 -19.5q108 0 203 33t163.5 104.5t81.5 168.5l12 84q14 97 -35 168t-135 104t-194 33 q-110 0 -207.5 -32.5t-168.5 -103.5t-85 -169z" />
<glyph unicode="7" horiz-adv-x="1046" d="M94 0l946 1331h-800l16 121h913l31 -90l-969 -1362h-137z" />
<glyph unicode="8" horiz-adv-x="1193" d="M106 410q18 131 96 234.5t197 139.5l2 7q-80 34 -113.5 113.5t-19.5 176.5q11 75 45 139t83.5 108.5t112 76t130 46.5t137.5 15h39q88 0 164.5 -24.5t135 -70.5t87 -121.5t15.5 -168.5q-14 -97 -70.5 -176.5t-145.5 -113.5l-2 -7q110 -36 160.5 -139.5t32.5 -234.5 q-17 -105 -74 -189.5t-138.5 -137t-177.5 -80.5t-196 -28h-39q-100 0 -188 28t-154.5 80.5t-99 137t-19.5 189.5zM225 412q-10 -65 7 -119t52 -90t84.5 -60.5t104 -35.5t111.5 -11h39q72 0 143.5 18.5t136.5 54.5t110.5 99t57.5 144q11 76 -3.5 133t-46 90.5t-82.5 54.5 t-105 28t-123 7h-39q-69 0 -124.5 -7t-112.5 -28t-98 -54.5t-71 -90.5t-41 -133zM385 1081q-9 -61 4.5 -106t40.5 -70.5t71.5 -40.5t87.5 -19.5t99 -4.5h39q56 0 100.5 4.5t93 19.5t83 40.5t61 70.5t35.5 106q12 89 -29 152t-111.5 91t-160.5 28h-39q-140 0 -248.5 -70 t-126.5 -201z" />
<glyph unicode="9" horiz-adv-x="1247" d="M141 238l117 55q31 -94 127.5 -143.5t226.5 -49.5q110 0 207.5 32.5t168.5 104t85 169.5l45 311q-81 -95 -197.5 -138.5t-246.5 -43.5q-103 1 -192.5 28t-157 77.5t-100.5 132t-19 183.5l12 88q14 102 70 184t138.5 133t180 78t199.5 27q82 1 157 -15.5t139 -51 t108.5 -84t65 -119.5t9.5 -152l-90 -641q-14 -102 -71.5 -184.5t-141.5 -133.5t-183 -77.5t-202 -25.5q-163 0 -287.5 66.5t-167.5 189.5zM326 958q-14 -97 35 -168t135 -104t194 -33q110 0 207.5 32.5t168.5 103.5t85 169l12 84q11 74 -16 133.5t-81 96.5t-125 56.5 t-153 19.5q-108 0 -203 -33t-164 -104.5t-83 -168.5z" />
<glyph unicode=":" horiz-adv-x="479" d="M160 117q4 41 36.5 69.5t73.5 28.5t66 -28.5t20 -69.5q-6 -41 -38.5 -70t-73.5 -29t-65.5 29t-18.5 70zM268 891q4 41 37 69.5t74 28.5t66 -28.5t20 -69.5q-6 -41 -39 -69.5t-74 -28.5t-65.5 28.5t-18.5 69.5z" />
<glyph unicode=";" horiz-adv-x="507" d="M47 -283l184 467h160l-223 -467h-121zM274 860q4 41 37 69.5t74 28.5t66 -28.5t20 -69.5q-6 -41 -39 -69.5t-74 -28.5t-65.5 28.5t-18.5 69.5z" />
<glyph unicode="&#x3c;" horiz-adv-x="970" d="M199 571l12 99l782 430l-18 -137l-637 -342l541 -338l-19 -136z" />
<glyph unicode="=" horiz-adv-x="1146" d="M219 424l14 113h834l-14 -113h-834zM258 707l16 110h834l-16 -110h-834z" />
<glyph unicode="&#x3e;" horiz-adv-x="983" d="M174 147l19 136l634 338l-538 342l18 137l660 -430l-13 -99z" />
<glyph unicode="?" horiz-adv-x="974" d="M213 1294q68 73 163.5 117.5t192 56.5t190 -9t162 -70t103.5 -136t18 -198q-12 -80 -45 -147.5t-78.5 -115.5t-105 -85t-121.5 -59t-131 -34l-63 -333h-101l47 430q113 1 216.5 40.5t178 120t87.5 185.5q8 70 -11.5 127t-60.5 92t-95 57t-117.5 23t-125.5 -11.5 t-120.5 -44t-100.5 -77.5h-2zM326 88q4 41 37 69.5t73 28.5t63.5 -28.5t18.5 -69.5q-6 -41 -37 -68.5t-71 -27.5t-65 27.5t-19 68.5z" />
<glyph unicode="@" horiz-adv-x="1583" d="M184 729q21 154 98.5 292.5t190.5 238t259.5 157.5t299.5 58q193 0 339 -79t215.5 -217t45.5 -307q-17 -121 -74 -233t-134 -189.5t-168 -124t-175 -46.5q-55 0 -85 35t-21 100h-4q-55 -56 -130.5 -95.5t-148.5 -39.5q-129 0 -188 83.5t-41 210.5q15 106 63 210 t119 187.5t169 135t204 51.5q73 0 125 -40.5t65 -125.5h4l66 127h121l-277 -581q-31 -66 -35 -97q-4 -20 5 -36.5t38 -16.5q68 0 155 73.5t155.5 188.5t83.5 223q16 109 -18 204.5t-104 161t-169 103t-211 37.5q-134 0 -261.5 -53.5t-223.5 -142.5t-161.5 -207.5 t-82.5 -245.5q-19 -132 15 -252.5t107.5 -208.5t185.5 -140t243 -52q110 0 211 37l35 -86q-125 -47 -261 -47q-160 0 -292.5 59t-216.5 159.5t-121 238.5t-15 292zM575 578q-11 -84 30.5 -137.5t119.5 -53.5q89 0 180.5 78t150.5 183.5t72 195.5q29 209 -133 209 q-84 1 -160.5 -45t-128.5 -118.5t-86 -154t-45 -157.5z" />
<glyph unicode="A" d="M20 0l723 1450h177l321 -1450h-127l-106 483h-623l-238 -483h-127zM444 604h537l-162 756z" />
<glyph unicode="B" horiz-adv-x="1290" d="M162 0l203 1452h550q86 0 157 -23t122 -68t74 -117q15 -46 14 -98q0 -30 -4 -63q-31 -221 -201 -311q181 -66 180 -280q0 -42 -6 -89q-17 -109 -65 -188.5t-121 -125.5t-160.5 -67.5t-193.5 -21.5h-549zM299 121h430h15q162 0 261 61q103 64 125 224q5 37 5 69 q0 111 -64 165q-81 69 -250 69h-10h-430zM397 829h430q136 0 225.5 61.5t108.5 192.5q3 24 3 46q0 39 -10 70q-16 49 -53.5 77.5t-87.5 41.5t-114 13h-430z" />
<glyph unicode="C" horiz-adv-x="1179" d="M158 426l84 598q13 93 60.5 170.5t116.5 130.5t155 87q84 34 174 46q49 6 98 7q40 -1 81 -5q89 -10 163.5 -40t132 -86t82.5 -130l-117 -53v-2q-25 72 -93.5 119.5t-154.5 65.5q-52 11 -109 10q-37 0 -75 -4q-97 -12 -179.5 -48.5t-142 -106.5t-72.5 -161l-83 -598 q-3 -22 -3 -43q0 -65 30 -118q40 -70 112 -106.5t166 -48.5q37 -5 73 -4q55 0 111 10q92 18 174 65.5t127 119.5l102 -53q-46 -73 -119 -128.5t-156.5 -86.5t-175.5 -41q-46 -5 -90.5 -5.5t-87.5 5.5q-86 10 -162.5 44t-130 86t-79.5 131q-17 52 -16 111q0 30 4 62z" />
<glyph unicode="D" horiz-adv-x="1269" d="M162 0l203 1450h483q106 0 196.5 -25t161.5 -75q72 -48 106 -132q24 -58 23 -129q0 -30 -4 -63l-86 -604q-12 -86 -52 -157.5t-98.5 -119.5t-133 -81.5t-153.5 -48.5t-163 -15h-483zM299 121h363q82 0 157.5 17.5t141 52t109.5 94t54 137.5l86 604q3 23 3 44q0 52 -19 94 q-27 60 -83 95t-127 52.5t-153 17.5h-362z" />
<glyph unicode="E" horiz-adv-x="1171" d="M162 0l203 1452h909l-17 -121h-788l-78 -545h727l-16 -122h-727l-76 -543h788l-16 -121h-909z" />
<glyph unicode="F" horiz-adv-x="1118" d="M162 0l203 1450h907l-17 -121h-786l-82 -586h690l-18 -120h-690l-86 -623h-121z" />
<glyph unicode="G" horiz-adv-x="1337" d="M145 353q0 35 5 73l83 608q17 122 94 217.5t182.5 147t230.5 67.5q54 8 105 8q67 0 130 -12q111 -22 199 -87t122 -163l-116 -53q-25 72 -93.5 119.5t-154.5 65.5q-53 10 -109 10q-37 0 -75 -4q-97 -12 -179.5 -48.5t-142 -106.5t-72.5 -161l-84 -608q-3 -24 -3 -46 q0 -127 111 -204q106 -74 267 -74h21q179 6 306 96q124 88 144 228l25 180h-445l17 121h565l-41 -301q-29 -209 -214 -333q-159 -107 -369 -114h-25q-188 0 -321 86q-158 103 -163 288z" />
<glyph unicode="H" horiz-adv-x="1409" d="M160 0l202 1450h121l-94 -666h846l94 666h121l-203 -1450h-121l93 664h-846l-92 -664h-121z" />
<glyph unicode="I" horiz-adv-x="475" d="M164 0l203 1450h120l-202 -1450h-121z" />
<glyph unicode="J" horiz-adv-x="1185" d="M43 332l123 22q3 -60 30.5 -109t71.5 -80t100.5 -51.5t119.5 -22.5h22l102 7q63 9 122 36t106 64.5t79.5 93.5t41.5 122l129 915h-484l17 121h604l-146 -1036q-22 -156 -134.5 -267.5t-258.5 -144.5q-102 -24 -202 -24q-44 0 -89 5q-144 15 -245.5 109t-108.5 240z" />
<glyph unicode="K" horiz-adv-x="1245" d="M162 0l203 1450h120l-112 -797l923 797h156l-797 -698l590 -752h-155l-533 666l-207 -183l-67 -483h-121z" />
<glyph unicode="L" horiz-adv-x="1021" d="M164 0l203 1450h120l-186 -1329h725l-16 -121h-846z" />
<glyph unicode="M" horiz-adv-x="1632" d="M156 0l202 1450h177l331 -1096l637 1096h176l-202 -1450h-121l178 1282l-633 -1083h-115l-331 1083l-179 -1282h-120z" />
<glyph unicode="N" horiz-adv-x="1411" d="M162 0l203 1450h147l635 -1317l184 1317h121l-203 -1450h-180l-610 1264l-176 -1264h-121z" />
<glyph unicode="O" horiz-adv-x="1396" d="M176 328v20q0 30 4 62l88 632q29 206 219 329q167 108 390 116q16 0 31 1q197 0 337 -85q166 -100 176 -279v-20q0 -30 -4 -62l-88 -632q-29 -206 -219 -329q-167 -108 -390 -116q-16 -1 -31 -1q-197 0 -337 85q-166 100 -176 279zM301 410q-3 -22 -3 -43 q0 -129 118 -206q115 -76 289 -77q9 0 18 1q191 4 328 93q136 89 157 232l88 632q3 24 3 46q0 55 -21 101q-30 64 -90.5 102t-137.5 57.5t-165 19.5q-87 -1 -168.5 -21t-151.5 -58t-117.5 -102t-58.5 -145z" />
<glyph unicode="P" horiz-adv-x="1261" d="M164 0l203 1450h546q231 0 344 -147q78 -100 78 -237q0 -25 -3 -51q-17 -169 -133 -297q-141 -157 -362 -173q-24 -2 -49 -2h-428q-30 -207 -75 -543h-121zM377 664h426q192 0 309 128q94 100 101 234q1 10 1 21q0 120 -79 198q-84 84 -231 84h-7h-426z" />
<glyph unicode="Q" horiz-adv-x="1398" d="M182 416l86 618q29 206 219 330q166 107 388 115q17 1 34 1q195 0 334 -85q166 -100 176 -279q1 -10 1 -20q0 -30 -5 -62l-86 -618q-23 -160 -145 -273l80 -125l-109 -59l-72 111q-88 -51 -195 -76q-103 -24 -203 -24h-9q-104 1 -200.5 31.5t-166.5 83.5t-106 139 q-25 61 -25 131q0 30 4 61zM303 416q-3 -21 -3 -42q0 -53 21 -100q29 -63 86 -102t134.5 -60.5t160.5 -21.5q3 -1 5 -1q81 0 163 19q85 20 154 58l-100 162l104 65l94 -151q72 75 86 174l86 618q3 24 3 46q0 56 -21 101q-29 64 -88.5 102t-136 57.5t-164.5 19.5 q-87 -1 -168.5 -21t-152 -58t-118 -102t-59.5 -145z" />
<glyph unicode="R" horiz-adv-x="1277" d="M162 0l203 1450h546q217 0 335 -104q96 -85 96 -244q0 -35 -5 -74q-16 -109 -65.5 -191t-124 -129.5t-162 -70.5t-188.5 -23h-4l399 -614h-145l-402 614h-276q-59 -413 -86 -614h-121zM383 725h428q177 0 279.5 69.5t126.5 233.5q5 33 5 63q0 44 -11 80q-18 60 -63 94.5 t-107 50.5q-55 14 -126 13h-18h-428z" />
<glyph unicode="S" horiz-adv-x="1218" d="M125 256l115 49h2q21 -71 85.5 -121t148.5 -72q69 -18 147 -17q17 1 33 1q96 4 178 33t145 90.5t82 145.5q9 39 9 73q0 36 -10 65q-19 58 -66 91.5t-112 56t-140 38.5t-150 32.5t-141 44.5t-113 68q-48 40 -68 108q-11 37 -12 81q0 37 8 79q15 85 63 155t116 115 t151.5 72.5t169.5 33.5q24 2 49 1q62 0 124 -10q86 -14 157 -47t124 -88.5t74 -127.5l-114 -49q-21 69 -84 117q-64 48 -146 70q-67 18 -142 18h-32q-92 -4 -172.5 -33t-141 -89t-77.5 -142q-6 -30 -7 -56q0 -32 10 -58q16 -48 55 -75.5t95 -49t121 -33t133.5 -27.5 t133 -33.5t118.5 -50t91 -77t50 -114.5q5 -30 6 -64q0 -46 -11 -100q-22 -115 -102 -201.5t-186 -129.5t-229 -52q-31 -2 -61 -2q-90 0 -171 20q-109 27 -193 95t-113 166z" />
<glyph unicode="T" horiz-adv-x="1128" d="M207 1331l16 121h1088l-17 -121h-483l-186 -1331h-121l186 1331h-483z" />
<glyph unicode="U" horiz-adv-x="1400" d="M210 351q0 36 5 73l143 1026h121l-143 -1026q-3 -25 -3 -47q0 -129 110 -208q105 -75 266 -75h20q178 5 306 96q126 91 147 234l143 1026h121l-143 -1026q-30 -212 -216 -337q-160 -108 -370 -114h-24q-188 0 -321 87q-159 104 -162 291z" />
<glyph unicode="V" horiz-adv-x="1243" d="M209 1452h127l295 -1360l672 1360h127l-723 -1450h-179z" />
<glyph unicode="W" horiz-adv-x="1892" d="M211 1450h127l190 -1360l533 1170h117l204 -1170l572 1360h127l-623 -1450h-176l-188 1069l-490 -1069h-176z" />
<glyph unicode="X" horiz-adv-x="1206" d="M27 0l598 723l-392 727h142l336 -621l510 621h143l-596 -727l395 -723h-145l-334 629l-512 -629h-145z" />
<glyph unicode="Y" horiz-adv-x="1171" d="M223 1450h142l317 -762l528 762h144l-631 -883l-78 -567h-121l78 567z" />
<glyph unicode="Z" horiz-adv-x="1153" d="M55 92l1078 1237h-867l17 121h995l31 -92l-1078 -1237h883l-16 -121h-1018z" />
<glyph unicode="[" horiz-adv-x="524" d="M113 -272l256 1818h307l-17 -104h-184l-225 -1610h184l-14 -104h-307z" />
<glyph unicode="\" horiz-adv-x="757" d="M219 1487l113 37l403 -1561l-117 -37z" />
<glyph unicode="]" horiz-adv-x="520" d="M16 -270l15 98h184l227 1622h-184l14 98h308l-256 -1818h-308z" />
<glyph unicode="^" horiz-adv-x="1239" d="M274 870l492 580h94l342 -580h-143l-262 463l-381 -463h-142z" />
<glyph unicode="_" horiz-adv-x="1024" d="M-25 -178l17 115h1022l-17 -115h-1022z" />
<glyph unicode="`" horiz-adv-x="430" d="M213 1450h164l129 -266h-119z" />
<glyph unicode="a" horiz-adv-x="1026" d="M133 328q8 55 26.5 188.5t28.5 206.5q14 103 66.5 177t127.5 110q74 38 162 54q61 11 123 11q29 -1 57 -3q90 -8 170.5 -28t141.5 -51l-137 -993h-102l-2 106q-47 -46 -119 -76q-72 -28 -150 -38q-30 -4 -59 -4q-47 0 -95 10q-76 16 -134.5 53t-88.5 109q-20 49 -20 109 q0 28 4 59zM250 328q-3 -20 -2 -39q0 -47 18 -85q26 -52 75 -74t114 -28q18 -2 37 -2l93 10q65 14 125.5 42t98.5 65l98 694q-49 25 -120 39q-55 11 -116 11q-17 0 -35 -1q-80 -4 -149.5 -26t-120 -76t-61.5 -133q-7 -50 -26 -186t-29 -211z" />
<glyph unicode="b" horiz-adv-x="1026" d="M127 45q31 225 98.5 704.5t98.5 704.5h114l-61 -438q148 63 299 63h6q74 0 140 -22q68 -23 119 -65q51 -44 75 -110q17 -46 17 -98q0 -24 -3 -49q-9 -66 -29.5 -209t-29.5 -209q-11 -83 -54 -149.5t-106 -107.5t-135.5 -63t-149.5 -24q-199 0 -399 72zM252 125 q106 -39 289 -39q115 0 207.5 60t105.5 167v4q9 66 29.5 209t29.5 209v2q3 19 3 37q0 34 -12 63q-18 44 -54.5 71t-84.5 41.5t-103 15.5q-155 0 -300 -60q-17 -124 -54.5 -390t-55.5 -390z" />
<glyph unicode="c" horiz-adv-x="917" d="M143 328q9 64 29 203t29 204q12 83 56 150.5t107 108.5t137 63t150 22q115 0 206.5 -46.5t129.5 -135.5l-104 -61q-25 63 -92.5 96t-155.5 33q-75 0 -141.5 -23.5t-117 -76.5t-61.5 -126v-4q-9 -64 -28.5 -203t-28.5 -204v-4q-3 -19 -3 -36q-1 -84 63 -132 q76 -58 194 -58q99 0 183.5 42t117.5 122l98 -51q-56 -110 -170.5 -168.5t-244.5 -58.5q-76 0 -144 22t-119.5 63t-76.5 109q-17 46 -17 98q0 25 4 52z" />
<glyph unicode="d" horiz-adv-x="1046" d="M160 317q9 65 29.5 209t29.5 209q15 107 85 187q72 82 168 120q94 38 195 37h5q149 0 278 -63l62 438h114q-30 -224 -98 -704t-98 -705q-219 -72 -420 -72q-77 2 -143.5 24t-117.5 63q-51 42 -75 108q-17 46 -17 99q0 24 3 50zM276 313q-3 -19 -2 -37q0 -82 60 -130 q74 -60 190 -60q185 0 301 39q17 124 55 390t56 390q-132 60 -283 60q-118 -2 -210.5 -61t-106.5 -167v-2q-9 -66 -30 -209.5t-30 -208.5v-4z" />
<glyph unicode="e" horiz-adv-x="1009" d="M152 326q9 66 27.5 200t27.5 199q26 178 180 278q122 79 274 79h21q160 -6 254 -96q82 -79 82 -198q0 -26 -4 -55q-12 -87 -54.5 -154.5t-102.5 -107t-134.5 -62t-151.5 -23.5h-9q-72 0 -142 14q-74 16 -137 46q-2 -19 -8.5 -60t-8.5 -60q-2 -18 -3 -34q-1 -38 13 -70 q18 -46 57 -72.5t87 -40t102 -13.5q91 0 170.5 36.5t120.5 105.5l94 -52q-59 -99 -169 -151.5t-232 -52.5q-77 0 -145 22t-119.5 63t-76.5 109q-17 46 -17 98q0 25 4 52zM297 553q58 -24 127 -39q68 -16 148 -16q2 0 5 -1q77 0 142 19q67 19 117 74.5t63 142.5q3 21 3 40 q0 103 -87 161q-69 46 -163 46q-25 0 -52 -3q-132 -17 -212 -105q-54 -61 -66 -145z" />
<glyph unicode="f" horiz-adv-x="536" d="M4 -305q85 54 105 194q28 205 86 613.5t86 613.5q24 165 136.5 253.5t270.5 90.5l-16 -114q-109 0 -185.5 -61t-91.5 -169l-33 -237h230l-17 -115h-229q-21 -145 -61.5 -437t-61.5 -438q-26 -185 -166 -274z" />
<glyph unicode="g" horiz-adv-x="1026" d="M123 -246l88 72q30 -48 95 -76q64 -28 138 -28h3q76 1 148.5 22.5t125 76t63.5 130.5l15 98q-134 -63 -293 -63h-7q-73 0 -138 22q-68 22 -118.5 64t-74.5 108q-17 46 -17 99q0 24 3 49q16 118 57 413q16 108 85 186.5t161 115.5t194 38q128 0 285 -47q34 -10 108 -35 l-147 -1046q-13 -93 -64.5 -163.5t-123 -108.5t-157.5 -53q-51 -10 -101 -10q-33 0 -65 4q-81 11 -151.5 45t-111.5 87zM268 324q-3 -18 -3 -35q0 -50 25 -89q35 -52 94 -76t132 -26q153 3 297 60q18 121 53.5 374.5t53.5 374.5q-135 62 -285 62q-114 0 -204 -59.5 t-103 -166.5l-2 -2q-10 -74 -31 -221t-27 -192v-4z" />
<glyph unicode="h" horiz-adv-x="1073" d="M141 0l203 1450h115l-64 -453q147 64 295 64h13q71 -1 133 -21q68 -22 119 -64q51 -44 75 -110q17 -46 17 -98q0 -24 -3 -49l-100 -719h-115l101 719v2q2 17 2 32q0 84 -64 133q-76 58 -192 60q-149 0 -297 -57l-123 -889h-115z" />
<glyph unicode="i" horiz-adv-x="440" d="M164 0h115q33 235 73.5 530t73.5 531h-115zM309 1321q6 38 36.5 65t68.5 27t62 -27q19 -22 19 -50q0 -7 -1 -15q-4 -38 -35.5 -65t-69.5 -27q-37 0 -61 27q-19 22 -20 52q0 6 1 13z" />
<glyph unicode="j" horiz-adv-x="448" d="M-117 -393q156 0 262.5 94t128.5 254l156 1106h-115l-155 -1106q-15 -109 -85 -171.5t-177 -62.5zM317 1321q6 38 36.5 65t68.5 27t62 -27q19 -22 19 -50q0 -7 -1 -15q-4 -38 -35.5 -65t-69.5 -27t-61 27q-20 22 -20 52q0 6 1 13z" />
<glyph unicode="k" horiz-adv-x="966" d="M139 0l203 1450h115l-133 -946l637 557h143l-543 -479l391 -582h-141l-340 500l-168 -148l-49 -352h-115z" />
<glyph unicode="l" horiz-adv-x="499" d="M193 328l157 1124h115l-158 -1124q-4 -29 -4 -54q0 -168 182 -168l-16 -114q-154 0 -226 88q-55 68 -55 177q0 34 5 71z" />
<glyph unicode="m" horiz-adv-x="1683" d="M143 -4l138 971q78 40 172.5 63.5t192.5 26.5q7 0 14 1q88 0 168 -34q86 -36 133 -111q65 68 152 102.5t177 37.5h20q154 0 250 -89q81 -76 81 -201q0 -31 -5 -65l-98 -702h-117l99 698q4 27 4 51q0 87 -56 135q-69 58 -179 58h-11q-60 -1 -119 -21t-106.5 -64.5 t-55.5 -104.5l-106 -752h-113l107 752q2 12 2 24q-1 40 -19 70q-24 40 -66 62q-43 24 -100 34q-44 8 -89 8q-13 0 -26 -1q-58 -3 -112 -18t-90 -40l-125 -891h-117z" />
<glyph unicode="n" horiz-adv-x="1089" d="M143 0l138 977q256 84 417 84q76 -2 142 -24t116.5 -63t74.5 -107q16 -45 17 -98q0 -24 -4 -50l-100 -719h-115l101 719q3 19 3 36q0 83 -63 132q-76 59 -188 59q-147 0 -301 -61l-123 -885h-115z" />
<glyph unicode="o" horiz-adv-x="1046" d="M158 324q9 64 29.5 209t29.5 210q11 83 55 150.5t107.5 109.5t137.5 64t151 23q77 -1 144.5 -23t119 -64t76.5 -109q17 -47 17 -101q0 -24 -3 -50q-9 -64 -29.5 -209t-29.5 -210q-12 -84 -56 -151t-107 -109t-137 -64t-151 -23q-77 1 -145 23t-119.5 64t-76.5 110 q-17 46 -17 98q0 25 4 52zM272 324q-2 -18 -3 -34q-1 -38 13 -70q18 -46 57 -73t87 -41t102 -14q73 0 139 23t118 77.5t63 131.5q9 65 29.5 210t29.5 209q2 17 2 33q0 38 -13 70q-19 46 -57.5 73t-86.5 40.5t-101 13.5q-74 0 -139.5 -22.5t-117 -76.5t-62.5 -131 q-9 -65 -30 -210t-30 -209z" />
<glyph unicode="p" horiz-adv-x="1034" d="M68 -391q66 476 196 1399q216 71 420 71q76 -1 142.5 -22.5t117.5 -62.5t76 -108q16 -44 16 -96q0 -26 -4 -53q-9 -66 -28.5 -206t-28.5 -205q-16 -108 -86.5 -189t-166.5 -119q-94 -38 -195 -38h-5q-151 3 -278 65l-62 -436h-114zM258 154q139 -60 283 -60 q117 2 210 61.5t107 166.5v4q9 65 28.5 205t28.5 206v4q3 19 3 37q0 33 -11 62q-17 44 -53.5 70.5t-84 40.5t-101.5 14q-195 0 -301 -35q-18 -125 -54.5 -388t-54.5 -388z" />
<glyph unicode="q" horiz-adv-x="1034" d="M152 326q9 65 28.5 205t28.5 206q16 109 85.5 188.5t162.5 116t198 37.5q203 0 400 -71q-26 -185 -94 -667.5t-103 -731.5h-115l62 436q-145 -62 -299 -65h-5q-101 0 -184 38q-85 38 -133 119q-36 61 -36 137q0 25 4 52zM268 322q-3 -19 -3 -36q0 -50 25 -89 q35 -53 95 -77.5t135 -25.5q147 0 299 60q17 125 54.5 388t54.5 388q-93 35 -289 35q-115 0 -207 -58.5t-106 -165.5v-4q-9 -65 -29 -205t-29 -206v-4z" />
<glyph unicode="r" horiz-adv-x="628" d="M127 0l100 727q19 132 115 220t229 114q39 8 88 9q35 0 76 -5l-16 -115q-32 7 -67 7q-39 0 -81 -9q-90 -20 -153 -76t-76 -145l-100 -727h-115z" />
<glyph unicode="s" horiz-adv-x="874" d="M74 207l94 55q49 -82 128 -126q74 -41 159 -40h12q63 1 116.5 18t95 60.5t50.5 108.5q2 14 2 28q0 25 -7 45q-11 32 -30.5 52t-53 35.5t-61 23t-65.5 14.5q-77 14 -128.5 30.5t-107.5 48.5t-80 88q-16 38 -16 85q0 22 4 47q11 77 53.5 136t104 92.5t127.5 50t133 16.5 q85 0 160 -27t123 -79l-86 -86q-69 82 -211 82q-35 0 -70 -5t-73.5 -18t-68 -33t-51.5 -53.5t-28 -75.5q-1 -10 -2 -19q1 -29 13 -53q16 -32 34.5 -49t62.5 -33t64 -20.5t69 -13.5q6 -1 9 -2q53 -10 96 -23.5t85 -38t69 -56.5t40 -80q8 -30 8 -65q0 -21 -3 -44 q-14 -97 -75 -165t-141.5 -98t-174.5 -32h-13q-120 0 -214 54q-100 56 -152 165z" />
<glyph unicode="t" horiz-adv-x="563" d="M182 334q24 175 79 558t79 558h115l-56 -389h230l-17 -115h-229l-86 -612q-3 -21 -2 -40q-1 -85 53 -144q52 -56 132 -57q22 0 46 5l-14 -102q-32 -5 -62 -5q-118 1 -195 77q-77 77 -77 203q0 30 4 63z" />
<glyph unicode="u" horiz-adv-x="1058" d="M176 324l103 739h114l-102 -739l-2 -5q-2 -17 -2 -33q0 -84 62 -132q74 -58 188 -60q140 0 301 64l127 905h114l-139 -1000q-91 -26 -121 -34q-167 -47 -299 -47q-76 1 -142 23t-116 63q-50 42 -74 108q-16 44 -16 95q0 26 4 53z" />
<glyph unicode="v" horiz-adv-x="956" d="M172 1061h121l203 -957l467 957h120l-520 -1061h-166z" />
<glyph unicode="w" horiz-adv-x="1458" d="M172 1061h121l149 -942l361 942h145l99 -942l411 942h121l-467 -1061h-164l-92 907l-348 -907h-164z" />
<glyph unicode="x" horiz-adv-x="923" d="M25 0l438 530l-291 531h139l234 -449l354 449h139l-438 -531l291 -530h-139l-232 446l-356 -446h-139z" />
<glyph unicode="y" horiz-adv-x="1062" d="M131 -248l94 76q26 -41 78 -68t115 -36q28 -4 58 -4q35 0 72 6q67 10 123.5 37t97.5 78t50 118l12 94q-67 -39 -140 -53t-165 -16h-6q-76 0 -144 22q-70 24 -122 68t-77 112q-17 47 -17 100q0 25 4 52l100 723h119l-100 -723l-2 -4q-3 -19 -3 -36q0 -84 66 -134 q78 -60 197 -62q156 0 307 62l125 897h117l-154 -1102q-14 -96 -67 -170t-127 -114t-162 -56q-54 -10 -106 -10q-34 0 -67 5q-84 10 -158 46t-118 92z" />
<glyph unicode="z" horiz-adv-x="897" d="M39 82l790 868l-630 -6l16 117h719l57 -84l-784 -864l659 4l-16 -117h-750z" />
<glyph unicode="{" horiz-adv-x="587" d="M184 590l15 98q141 0 186 316l43 296q15 116 72 182t143 66h102l-14 -98h-76q-25 0 -42 -8t-27 -18.5t-17.5 -35.5t-11 -43t-8.5 -57l-47 -327q-9 -75 -31 -138t-47.5 -99.5t-46 -56.5t-33.5 -26v-4q12 -7 26 -26t30 -59t19 -97t-7 -138l-47 -335q-15 -75 -0.5 -114.5 t73.5 -39.5h66l-15 -98h-102q-85 0 -122.5 66t-22.5 181l41 299q45 314 -99 314z" />
<glyph unicode="|" horiz-adv-x="454" d="M125 -365l268 1909h115l-268 -1909h-115z" />
<glyph unicode="}" horiz-adv-x="563" d="M8 -270l15 98h65q59 0 81 35t34 119l47 335q10 74 32 136.5t47.5 99t45 57t33.5 27.5v4q-17 8 -35.5 40.5t-34 103.5t1.5 176l47 327q5 40 7 57t1.5 42.5t-7.5 36t-22 18.5t-40 8h-76l14 98h103q85 0 122.5 -65.5t22.5 -182.5l-43 -296q-45 -316 100 -316l-14 -98 q-143 0 -188 -314l-41 -299q-15 -115 -72 -181t-143 -66h-103z" />
<glyph unicode="~" horiz-adv-x="1112" d="M225 561q122 184 283 184q52 0 100.5 -21.5t79.5 -48t69.5 -48t71.5 -21.5q56 0 102.5 36.5t98.5 102.5l57 -61q-114 -188 -280 -188q-38 0 -74.5 14.5t-65.5 35t-57 41.5t-60.5 35.5t-64.5 14.5q-56 0 -101 -35t-97 -100z" />
<glyph unicode="&#xa1;" horiz-adv-x="569" d="M152 -455l151 1069h123l-152 -1069h-122zM307 909q6 41 39 70t74 29t65.5 -29t18.5 -70t-39 -69.5t-74 -28.5t-65.5 28.5t-18.5 69.5z" />
<glyph unicode="&#xa2;" horiz-adv-x="942" d="M150 338q43 306 53 389q15 100 75 176t141.5 115.5t176.5 48.5l27 190h94l-27 -188q103 -6 183 -52t114 -128l-104 -62q-21 56 -77.5 88.5t-131.5 38.5l-119 -843q88 6 160 47.5t104 113.5l96 -51q-52 -102 -154 -159.5t-222 -65.5l-27 -189h-94l26 189q-68 8 -125 33 t-99.5 66.5t-61.5 104t-8 138.5zM262 334q-14 -94 43.5 -151t155.5 -70l119 839q-102 -13 -176 -70t-85 -151l-2 -4q-10 -83 -53 -389z" />
<glyph unicode="&#xa3;" horiz-adv-x="991" d="M66 0l14 104h213l84 603h-213l14 98h213l35 246q10 75 40.5 145t84.5 135t143.5 104.5t202.5 39.5q80 0 142 -27.5t120 -85.5l-92 -78q-37 43 -82 61.5t-111 18.5q-74 0 -136 -29t-101 -75t-62.5 -96t-29.5 -99l-37 -260h338l-15 -98h-337l-84 -603h501l-14 -104h-831z " />
<glyph unicode="&#xa4;" horiz-adv-x="1148" d="M117 291l133 112q-103 130 -78 322q27 191 168 322l-100 112l79 76l101 -115q156 109 334 109q176 0 301 -109l133 115l59 -76l-133 -112q105 -133 78 -322q-24 -187 -168 -322l100 -112l-80 -76l-100 115q-156 -109 -332 -109q-178 0 -303 109l-133 -115zM283 723 q-23 -165 77.5 -281t262.5 -116q163 0 296 116t156 281q16 110 -24.5 203t-124.5 146.5t-191 53.5q-162 0 -294.5 -117.5t-157.5 -285.5z" />
<glyph unicode="&#xa5;" horiz-adv-x="1077" d="M170 1452h141l316 -778l530 778h143l-583 -819h307l-33 -90h-323l-17 -109h346l-32 -90h-326l-47 -342h-121l47 342h-344l31 90h325l17 109h-338l33 90h280z" />
<glyph unicode="&#xa6;" horiz-adv-x="436" d="M117 -295l100 717h119l-100 -717h-119zM262 729l100 717h119l-100 -717h-119z" />
<glyph unicode="&#xa7;" horiz-adv-x="1015" d="M90 -49l117 51q19 -87 90 -133.5t166 -46.5q100 0 188 56t101 149q8 56 -20 100.5t-78.5 76t-113 60.5t-124 62.5t-111 73.5t-75.5 102t-15 139q25 172 256 264q-154 101 -133 260q15 101 83 176t158 110.5t187 35.5q111 0 193.5 -48t105.5 -145l-117 -59 q-18 67 -73.5 102t-131.5 35q-63 0 -123 -23.5t-104.5 -71.5t-54.5 -112q-7 -53 20 -96t76 -73.5t109 -59.5t120 -62t107.5 -72.5t72.5 -99t15 -133.5q-25 -171 -221 -270q64 -41 96.5 -107t22.5 -145q-15 -105 -81 -184.5t-157 -118.5t-192 -39q-135 0 -232.5 62 t-126.5 184zM344 645q-11 -75 19 -115t98 -77l201 -105q71 35 131.5 92.5t68.5 118.5q15 111 -137 203l-143 88q-219 -71 -238 -205z" />
<glyph unicode="&#xa8;" horiz-adv-x="575" d="M211 1352q4 35 32.5 59.5t63.5 24.5t56 -24.5t16 -59.5q-4 -35 -32.5 -59.5t-63.5 -24.5t-56 24.5t-16 59.5zM580 1352q4 35 32.5 59.5t63.5 24.5t56 -24.5t16 -59.5q-4 -35 -33 -59.5t-64 -24.5t-55.5 24.5t-15.5 59.5z" />
<glyph unicode="&#xa9;" horiz-adv-x="1626" d="M162 725q22 155 102.5 296t197 243t266 162.5t304.5 60.5q124 0 234.5 -38.5t194.5 -109t141 -164.5t79 -210t5 -240q-22 -155 -102 -296t-196.5 -243t-266 -162.5t-304.5 -60.5t-287.5 60.5t-220 162.5t-128.5 243t-19 296zM283 725q-24 -174 41 -321.5t200.5 -233.5 t309.5 -86t334 86t266.5 233.5t130.5 321.5q25 174 -40 321.5t-201 233.5t-310 86t-333.5 -86t-266 -233.5t-131.5 -321.5zM502 571q-12 -83 13 -150.5t76.5 -108.5t119 -63t143.5 -22q130 0 245 59t171 169l-99 51q-35 -80 -118.5 -122t-182.5 -42q-75 0 -135 23.5 t-95.5 76t-25.5 125.5l2 4q9 64 21.5 155t21.5 155v4q11 73 61.5 125.5t117 76t141.5 23.5q88 0 155.5 -33t92.5 -96l104 61q-38 89 -129.5 136t-206.5 47q-76 0 -150 -22t-137 -63t-107 -108.5t-56 -150.5q-9 -64 -21.5 -154.5t-21.5 -155.5z" />
<glyph unicode="&#xaa;" horiz-adv-x="677" d="M180 981q10 62 40 106.5t75.5 68.5t95 35t107.5 11q81 0 151 -28l10 75q8 58 -36.5 87.5t-114.5 29.5q-51 0 -103 -17t-86 -53l-59 68q56 55 128.5 83t143.5 28q112 0 184 -60t56 -170l-65 -471q-148 -46 -306 -43q-111 2 -174.5 69.5t-46.5 180.5zM293 981 q-10 -67 26.5 -107.5t100.5 -42.5q98 0 184 17l33 233q-79 27 -156 27q-168 0 -188 -127z" />
<glyph unicode="&#xab;" horiz-adv-x="854" d="M156 604l338 416l90 -59l-293 -357l194 -356l-108 -60zM453 604l338 416l90 -59l-293 -357l194 -356l-108 -60z" />
<glyph unicode="&#xac;" horiz-adv-x="1161" d="M186 705l17 112h977l-68 -469h-113l52 357h-865z" />
<glyph unicode="&#xad;" horiz-adv-x="681" d="M147 436l19 119h506l-19 -119h-506z" />
<glyph unicode="&#xae;" horiz-adv-x="1607" d="M147 725q29 206 156.5 382t317.5 278t397 102q155 0 287 -60.5t219.5 -162.5t128 -243t18.5 -296t-102 -296t-196 -243t-265.5 -162.5t-304.5 -60.5t-287.5 60.5t-220.5 162.5t-129 243t-19 296zM264 725q-24 -175 41.5 -323.5t202 -235t311.5 -86.5t336 86.5t268 235 t131 323.5q25 175 -40 323.5t-201.5 235t-311.5 86.5t-336 -86.5t-268.5 -235t-132.5 -323.5zM571 289l125 878h314q147 0 214.5 -67.5t49.5 -188.5q-16 -115 -88 -182.5t-170 -83.5l211 -356h-125l-211 356h-160l-51 -356h-109zM745 743h144q52 0 92.5 6.5t81.5 23t67 51.5 t33 87q11 79 -41.5 118.5t-132.5 39.5h-198z" />
<glyph unicode="&#xaf;" horiz-adv-x="491" d="M158 1311l18 119h541l-19 -119h-540z" />
<glyph unicode="&#xb0;" horiz-adv-x="714" d="M248 1196q15 114 106 193t205 79t183.5 -79t54.5 -193q-17 -114 -109.5 -195t-204.5 -81q-114 0 -183 80.5t-52 195.5zM348 1194q-9 -71 35.5 -121.5t114.5 -50.5q71 0 128 51t66 121q10 70 -33 121t-114 51q-70 0 -128 -50.5t-69 -121.5z" />
<glyph unicode="&#xb1;" horiz-adv-x="1161" d="M168 195l16 112h881l-16 -112h-881zM242 776l16 117h385l51 367h117l-51 -367h395l-16 -117h-396l-53 -368h-117l54 368h-385z" />
<glyph unicode="&#xb2;" horiz-adv-x="692" d="M123 657l481 404q52 42 82 96t16 105q-11 44 -51 69q-50 30 -114.5 32t-124.5 -22q-69 -26 -105 -86l-92 41q56 100 178 146q84 30 174 23.5t156 -50.5t84 -119q20 -78 -22 -162.5t-117 -146.5l-357 -301h426l-16 -104h-580z" />
<glyph unicode="&#xb3;" horiz-adv-x="706" d="M150 768l98 45l6 -16q18 -48 69.5 -77t110.5 -32q52 -3 110 16.5t97 59.5q33 36 39 86q10 69 -18 113q-48 51 -144 47h-65l10 82h65q29 0 65.5 14.5t61.5 36.5q36 26 43 84q6 48 -20 84q-32 42 -96.5 52t-130.5 -14t-101 -73l-10 -16l-80 47q41 79 120.5 115t162.5 40 q64 3 125 -18q60 -24 92 -64q50 -61 37 -153q-8 -53 -39 -98.5t-80 -69.5q126 -50 106 -209v-2q-19 -98 -88 -164q-53 -51 -129 -75t-153 -21q-89 5 -161 47.5t-97 116.5z" />
<glyph unicode="&#xb4;" horiz-adv-x="436" d="M248 1184l203 266h163l-247 -266h-119z" />
<glyph unicode="&#xb5;" horiz-adv-x="1028" d="M49 -467l213 1516h123l-92 -660q-5 -47 -6.5 -91t10 -82.5t32.5 -67.5t61 -45.5t97 -16.5q144 0 250 100t133 287l80 576h123l-139 -1049h-119q12 140 12 147h-6q-50 -79 -142 -125.5t-206 -46.5q-154 0 -223 117l-80 -559h-121z" />
<glyph unicode="&#xb6;" horiz-adv-x="1128" d="M176 972q17 169 134 298q145 160 377 178l54 2h465l-239 -1708h-119l225 1610h-256l-225 -1610h-123l113 803q-222 0 -332 142q-91 118 -74 285z" />
<glyph unicode="&#xb7;" horiz-adv-x="532" d="M258 651q6 41 39 70t74 29t65.5 -29t18.5 -70t-39 -69.5t-74 -28.5t-65.5 28.5t-18.5 69.5z" />
<glyph unicode="&#xb8;" horiz-adv-x="491" d="M14 -365l35 68q55 -31 129 -31q41 0 79.5 19.5t43.5 58.5q6 38 -26.5 56t-74 16.5t-71.5 -15.5l-23 27l132 166h65l-90 -115l2 -4q71 31 129 -11.5t43 -119.5q-8 -53 -44 -89t-79 -50t-92 -14q-84 0 -158 38z" />
<glyph unicode="&#xb9;" horiz-adv-x="577" d="M266 1223l242 237h98l-123 -868h-102l100 708l-145 -139z" />
<glyph unicode="&#xba;" horiz-adv-x="745" d="M188 973l35 237q11 82 66 142t128.5 87t153.5 27q126 0 210.5 -67.5t68.5 -188.5l-35 -237q-18 -121 -120 -188.5t-228 -67.5q-80 0 -146.5 27t-105.5 87t-27 142zM293 973q-8 -54 20.5 -90.5t71.5 -50t96 -13.5t99.5 13.5t84.5 50t46 90.5l34 237q7 54 -21.5 90.5 t-71.5 50t-95 13.5q-84 0 -151.5 -37.5t-77.5 -116.5z" />
<glyph unicode="&#xbb;" horiz-adv-x="829" d="M125 248l293 356l-195 357l107 59l223 -416l-340 -416zM422 248l293 356l-195 357l107 59l223 -416l-340 -416z" />
<glyph unicode="&#xbc;" horiz-adv-x="1482" d="M199 -12l1149 1532l86 -58l-1151 -1532zM231 1223l70 -62l145 139l-100 -708h103l122 868h-98zM817 309l53 -98h396l-29 -209h104l29 209h70l14 96h-70l78 565h-108zM942 307l406 434l-68 -434h-338z" />
<glyph unicode="&#xbd;" horiz-adv-x="1585" d="M170 -12l1149 1532l86 -58l-1151 -1532zM244 1223l69 -62l146 139l-101 -708h103l123 868h-99zM907 70l21 -76h579l15 104h-426l358 301q75 62 117 147t22 163q-17 73 -86 118q-66 44 -154.5 50.5t-172.5 -23.5q-123 -45 -179 -145l91 -41q40 60 104 86q136 51 242 -11 q40 -28 51 -69q14 -51 -16.5 -104.5t-81.5 -96.5z" />
<glyph unicode="&#xbe;" horiz-adv-x="1556" d="M141 768l6 -16q25 -74 97.5 -116.5t161.5 -47.5q81 -3 159.5 24t138.5 89.5t72 148.5q20 159 -106 209q48 24 79 69t39 99q13 93 -36 153q-31 39 -93 64q-61 21 -124 18q-83 -4 -162.5 -40t-120.5 -115l80 -47l10 16q35 49 101 73t130.5 14t96.5 -52q26 -36 20 -84 q-7 -58 -43 -84q-25 -22 -61.5 -36.5t-65.5 -14.5h-65l-11 -82h66q95 4 143 -47q29 -45 19 -113q-11 -81 -88.5 -124t-157.5 -38q-59 3 -110.5 32t-69.5 77l-6 16zM338 -12l1149 1532l86 -58l-1151 -1532zM889 309l53 -98h395l-28 -209h104l29 209h69l15 96h-70l78 565h-109 zM1014 307l405 434l-67 -434h-338z" />
<glyph unicode="&#xbf;" horiz-adv-x="978" d="M59 -4q-12 -84 5.5 -154.5t57 -119.5t97 -83t125 -48.5t142 -11.5t146 23t139 59.5t118.5 94.5l-80 72h-2q-42 -46 -100.5 -77.5t-120.5 -44t-125.5 -11.5t-117.5 23t-95 57t-60.5 92t-11.5 127q10 79 55.5 145.5t112.5 109.5t148 66.5t165 24.5l48 442h-101l-63 -346 q-87 -15 -163.5 -47t-144 -83.5t-113.5 -130.5t-61 -179zM590 991q4 39 34.5 66.5t69.5 27.5q40 0 64 -27t20 -67q-6 -40 -38 -68t-72 -28q-38 0 -61 28t-17 68z" />
<glyph unicode="&#xc0;" d="M20 0h127l238 483h623l106 -483h127l-321 1450h-177zM444 604l375 756l162 -756h-537zM629 1802h164l129 -266h-119z" />
<glyph unicode="&#xc1;" d="M20 0l723 1450h177l321 -1450h-127l-106 483h-623l-238 -483h-127zM444 604h537l-162 756zM778 1528l205 266h164l-250 -266h-119z" />
<glyph unicode="&#xc2;" d="M20 0h127l238 483h623l106 -483h127l-321 1450h-177zM444 604l375 756l162 -756h-537zM551 1503l254 244h143l189 -244h-136l-139 168l-174 -168h-137z" />
<glyph unicode="&#xc3;" d="M20 0h127l238 483h623l106 -483h127l-321 1450h-177zM444 604l375 756l162 -756h-537zM604 1567q33 94 119 123t162 -19q26 -17 54 -23.5t58.5 4.5t49.5 44l69 -29q-20 -62 -67 -93.5t-99 -30.5t-100 26q-131 75 -180 -27z" />
<glyph unicode="&#xc4;" d="M20 0h127l238 483h623l106 -483h127l-321 1450h-177zM444 604l375 756l162 -756h-537zM590 1616q4 35 32.5 59.5t63.5 24.5t56 -24.5t16 -59.5q-4 -35 -32.5 -59.5t-63.5 -24.5t-56 24.5t-16 59.5zM958 1616q4 35 33 59.5t64 24.5t55.5 -24.5t15.5 -59.5 q-4 -35 -32.5 -59.5t-63.5 -24.5t-56 24.5t-16 59.5z" />
<glyph unicode="&#xc5;" d="M20 0h127l238 483h623l106 -483h127l-321 1450h-177zM444 604l375 756l162 -756h-537zM680 1694q11 78 75.5 136t143.5 58q78 0 125.5 -59t36.5 -137q-11 -76 -75.5 -134.5t-141.5 -58.5q-79 0 -127 58t-37 137zM770 1692q-6 -43 19.5 -73t66.5 -30q42 0 75.5 31t39.5 74 t-19 73.5t-67 30.5t-75.5 -31.5t-39.5 -74.5z" />
<glyph unicode="&#xc6;" horiz-adv-x="1669" d="M18 0l943 1450h821l-17 -121h-618l-78 -545h555l-16 -120h-555l-76 -543h618l-16 -121h-739l67 483h-440l-307 -483h-142zM545 604h379l104 750z" />
<glyph unicode="&#xc7;" horiz-adv-x="1179" d="M158 426l84 598q13 93 60.5 170.5t116.5 130.5t154.5 87.5t175 46t178.5 2t163.5 -40t132 -86.5t82.5 -130l-117 -53v-2q-25 72 -93.5 119.5t-155 65t-183.5 6t-179.5 -48t-142 -106.5t-72.5 -161l-83 -598q-13 -91 27 -161t112 -106.5t165.5 -48t185 6t173.5 65 t127 119.5l102 -53q-82 -127 -231 -195.5t-313 -66.5l-66 -80l4 -4q49 17 91 5t67 -52t16 -88q-12 -78 -77 -118t-142 -40q-74 0 -155 43l38 72q53 -31 123 -31q41 0 76 17.5t39 56.5q6 38 -25.5 56t-72 16.5t-70.5 -15.5l-22 26l104 140q-93 9 -170 41t-133.5 85t-82 133 t-11.5 177z" />
<glyph unicode="&#xc8;" horiz-adv-x="1171" d="M162 0l203 1452h909l-17 -121h-788l-78 -545h727l-16 -122h-727l-76 -543h788l-16 -121h-909zM645 1798h164l129 -266h-119z" />
<glyph unicode="&#xc9;" horiz-adv-x="1171" d="M162 0l203 1452h909l-17 -121h-788l-78 -545h727l-16 -122h-727l-76 -543h788l-16 -121h-909zM758 1528l205 266h163l-249 -266h-119z" />
<glyph unicode="&#xca;" horiz-adv-x="1171" d="M162 0l203 1452h909l-17 -121h-788l-78 -545h727l-16 -122h-727l-76 -543h788l-16 -121h-909zM549 1528l256 244h143l187 -244h-136l-137 168l-176 -168h-137z" />
<glyph unicode="&#xcb;" horiz-adv-x="1171" d="M162 0l203 1452h909l-17 -121h-788l-78 -545h727l-16 -122h-727l-76 -543h788l-16 -121h-909zM598 1626q4 35 32.5 59.5t63.5 24.5t56 -24.5t16 -59.5q-4 -35 -32.5 -59.5t-63.5 -24.5t-56 24.5t-16 59.5zM967 1626q4 35 32.5 59.5t63.5 24.5t56 -24.5t16 -59.5 q-4 -35 -33 -59.5t-64 -24.5t-55.5 24.5t-15.5 59.5z" />
<glyph unicode="&#xcc;" horiz-adv-x="475" d="M164 0l203 1450h120l-202 -1450h-121zM217 1808h164l127 -266h-119z" />
<glyph unicode="&#xcd;" horiz-adv-x="475" d="M164 0l203 1450h120l-202 -1450h-121zM379 1538l203 266h163l-247 -266h-119z" />
<glyph unicode="&#xce;" horiz-adv-x="475" d="M152 1524l254 237h143l188 -237h-135l-139 162l-174 -162h-137zM164 0l203 1450h120l-202 -1450h-121z" />
<glyph unicode="&#xcf;" horiz-adv-x="475" d="M164 0l203 1450h120l-202 -1450h-121zM186 1620q4 35 32 59.5t63 24.5t56.5 -24.5t16.5 -59.5q-6 -35 -33.5 -59.5t-62.5 -24.5t-56.5 24.5t-15.5 59.5zM555 1620q5 35 32 59.5t62 24.5t56.5 -24.5t17.5 -59.5q-6 -35 -33.5 -59.5t-62.5 -24.5t-56.5 24.5t-15.5 59.5z " />
<glyph unicode="&#xd0;" horiz-adv-x="1255" d="M111 662l14 108h129l96 680h484q106 0 196.5 -25t161.5 -74.5t105.5 -133t19.5 -191.5l-86 -604q-12 -86 -52 -157.5t-98.5 -119.5t-133 -81.5t-153.5 -48.5t-163 -15h-484l93 662h-129zM285 121h362q82 0 158 17.5t141.5 52t109.5 94t54 137.5l86 604q11 78 -16 138 t-83 95t-127 52.5t-153 17.5h-362l-80 -559h256l-15 -108h-256z" />
<glyph unicode="&#xd1;" horiz-adv-x="1411" d="M162 0l203 1450h147l635 -1317l184 1317h121l-203 -1450h-180l-610 1264l-176 -1264h-121zM696 1561q31 94 118 123t163 -19q26 -17 54 -23.5t58 4.5t48 44l69 -29q-20 -62 -67 -93.5t-98.5 -30.5t-98.5 26q-132 73 -180 -27z" />
<glyph unicode="&#xd2;" horiz-adv-x="1396" d="M176 328q-2 40 4 82l88 632q29 206 219 329q167 108 390 116q217 7 368 -84q166 -100 176 -279q2 -39 -4 -82l-88 -632q-29 -206 -219 -329q-167 -108 -390 -116q-217 -7 -368 84q-166 100 -176 279zM301 410q-22 -159 115 -249q121 -80 307 -76q191 4 328 93 q136 89 157 232l88 632q12 83 -18 147t-90.5 102t-137.5 57.5t-165 19.5q-87 -1 -168.5 -21t-151.5 -58t-117.5 -102t-58.5 -145zM700 1810h164l127 -266h-119z" />
<glyph unicode="&#xd3;" horiz-adv-x="1396" d="M176 328q-2 40 4 82l88 632q29 206 219 329q167 108 390 116q217 7 368 -84q166 -100 176 -279q2 -39 -4 -82l-88 -632q-29 -206 -219 -329q-167 -108 -390 -116q-217 -7 -368 84q-166 100 -176 279zM301 410q-22 -159 115 -249q121 -80 307 -76q191 4 328 93 q136 89 157 232l88 632q12 83 -18 147t-90.5 102t-137.5 57.5t-165 19.5q-87 -1 -168.5 -21t-151.5 -58t-117.5 -102t-58.5 -145zM860 1546l203 266h164l-248 -266h-119z" />
<glyph unicode="&#xd4;" horiz-adv-x="1396" d="M176 328q-2 40 4 82l88 632q29 206 219 329q167 108 390 116q217 7 368 -84q166 -100 176 -279q2 -39 -4 -82l-88 -632q-29 -206 -219 -329q-167 -108 -390 -116q-217 -7 -368 84q-166 100 -176 279zM301 410q-22 -159 115 -249q121 -80 307 -76q191 4 328 93 q136 89 157 232l88 632q12 83 -18 147t-90.5 102t-137.5 57.5t-165 19.5q-87 -1 -168.5 -21t-151.5 -58t-117.5 -102t-58.5 -145zM623 1538l256 244h143l186 -244h-135l-137 168l-176 -168h-137z" />
<glyph unicode="&#xd5;" horiz-adv-x="1396" d="M176 328q-2 40 4 82l88 632q29 206 219 329q167 108 390 116q217 7 368 -84q166 -100 176 -279q2 -39 -4 -82l-88 -632q-29 -206 -219 -329q-167 -108 -390 -116q-217 -7 -368 84q-166 100 -176 279zM301 410q-22 -159 115 -249q121 -80 307 -76q191 4 328 93 q136 89 157 232l88 632q12 83 -18 147t-90.5 102t-137.5 57.5t-165 19.5q-87 -1 -168.5 -21t-151.5 -58t-117.5 -102t-58.5 -145zM666 1579q33 94 118.5 123t161.5 -19q26 -17 54 -23.5t58.5 4.5t49.5 44l70 -29q-20 -62 -67 -93.5t-99.5 -30.5t-100.5 26q-132 73 -180 -27z " />
<glyph unicode="&#xd6;" horiz-adv-x="1396" d="M176 328q-2 40 4 82l88 632q29 206 219 329q167 108 390 116q217 7 368 -84q166 -100 176 -279q2 -39 -4 -82l-88 -632q-29 -206 -219 -329q-167 -108 -390 -116q-217 -7 -368 84q-166 100 -176 279zM301 410q-22 -159 115 -249q121 -80 307 -76q191 4 328 93 q136 89 157 232l88 632q12 83 -18 147t-90.5 102t-137.5 57.5t-165 19.5q-87 -1 -168.5 -21t-151.5 -58t-117.5 -102t-58.5 -145zM666 1618q5 35 32 59.5t62 24.5t56.5 -24.5t17.5 -59.5q-6 -35 -34 -59.5t-63 -24.5t-56 24.5t-15 59.5zM1034 1618q5 35 32 59.5t62 24.5 t56.5 -24.5t17.5 -59.5q-6 -35 -33.5 -59.5t-62.5 -24.5t-56.5 24.5t-15.5 59.5z" />
<glyph unicode="&#xd7;" horiz-adv-x="978" d="M127 291l375 327l-287 336l94 82l287 -338l377 330l67 -82l-370 -325l276 -322l-94 -84l-279 324l-376 -332z" />
<glyph unicode="&#xd8;" horiz-adv-x="1396" d="M180 410l88 632q13 92 59.5 169t115 129t154 88t176.5 49t183.5 7.5t173.5 -30.5l78 143l103 -36l-82 -150q103 -57 154.5 -150.5t33.5 -218.5l-88 -632q-13 -91 -59.5 -168t-115 -129.5t-154 -88t-176.5 -49.5t-182.5 -9t-172.5 30l-80 -152l-104 37l84 158 q-104 57 -155.5 151t-33.5 220zM301 410q-25 -166 129 -260l641 1193q-89 25 -186 25q-87 -1 -168.5 -21t-151.5 -58t-117.5 -102t-58.5 -145zM530 109q77 -23 164.5 -25t173 19t157.5 59.5t121.5 103t61.5 144.5l88 632q22 172 -125 261z" />
<glyph unicode="&#xd9;" horiz-adv-x="1400" d="M210 351q0 36 5 73l143 1026h121l-143 -1026q-23 -163 107 -255q112 -80 286 -75q178 5 306 96q126 91 147 234l143 1026h121l-143 -1026q-30 -212 -216 -337q-160 -108 -370 -114q-204 -6 -345 87q-159 104 -162 291zM702 1794h164l127 -266h-119z" />
<glyph unicode="&#xda;" horiz-adv-x="1400" d="M210 351q0 36 5 73l143 1026h121l-143 -1026q-23 -163 107 -255q112 -80 286 -75q178 5 306 96q126 91 147 234l143 1026h121l-143 -1026q-30 -212 -216 -337q-160 -108 -370 -114q-204 -6 -345 87q-159 104 -162 291zM801 1524l203 266h163l-247 -266h-119z" />
<glyph unicode="&#xdb;" horiz-adv-x="1400" d="M210 351q0 36 5 73l143 1026h121l-143 -1026q-23 -163 107 -255q112 -80 286 -75q178 5 306 96q126 91 147 234l143 1026h121l-143 -1026q-30 -212 -216 -337q-160 -108 -370 -114q-204 -6 -345 87q-159 104 -162 291zM631 1540l256 244h143l187 -244h-136l-137 168 l-176 -168h-137z" />
<glyph unicode="&#xdc;" horiz-adv-x="1400" d="M210 351q0 36 5 73l143 1026h121l-143 -1026q-23 -167 107 -261q111 -81 283 -77q177 4 305 96q130 92 151 242l143 1026h121l-143 -1026q-30 -212 -216 -337q-160 -108 -370 -114q-204 -6 -345 87q-159 104 -162 291zM662 1630q6 35 33.5 59.5t62.5 24.5t56 -24.5 t15 -59.5q-5 -35 -32 -59.5t-62 -24.5t-56.5 24.5t-16.5 59.5zM1030 1630q6 35 33.5 59.5t62.5 24.5t56.5 -24.5t15.5 -59.5q-5 -35 -32 -59.5t-62 -24.5t-56.5 24.5t-17.5 59.5z" />
<glyph unicode="&#xdd;" horiz-adv-x="1122" d="M199 1450h141l317 -762l529 762h143l-631 -883l-77 -567h-121l78 567zM707 1522l202 266h164l-248 -266h-118z" />
<glyph unicode="&#xde;" horiz-adv-x="1124" d="M160 2l205 1462h122l-41 -284q92 12 195 12q278 0 407.5 -114t100.5 -330q-11 -82 -44 -149.5t-82 -115t-109 -82.5t-131 -55t-142 -29.5t-147 -9.5h-54l27 119h37q71 0 135 8t132 30t119 56.5t88 93t48 134.5q11 78 -10 137t-60.5 93.5t-99 56t-117 29t-123.5 7.5 q-101 0 -186 -14l-147 -1055h-123z" />
<glyph unicode="&#xdf;" horiz-adv-x="1230" d="M156 -2l157 1122q18 121 98.5 212t188.5 134t225 43q87 0 164.5 -23.5t137 -68.5t88.5 -118.5t16 -165.5q-14 -104 -68 -191.5t-145 -136.5q224 -81 182 -375q-14 -86 -55 -158.5t-100 -122.5t-132.5 -85t-152.5 -51t-160 -15q-131 4 -213 49l21 129q39 -23 97 -38 t111 -17q109 -2 205.5 30t168.5 105t87 176q22 158 -67 234.5t-254 74.5h-189l17 115h188q128 0 224 73t114 204q10 69 -12 121.5t-67.5 82t-101 44t-120.5 14.5q-87 0 -164.5 -27.5t-138 -91.5t-74.5 -156l-158 -1122h-118z" />
<glyph unicode="&#xe0;" horiz-adv-x="1042" d="M141 328q-14 -96 16 -168t88 -109.5t134.5 -53t154.5 -6t150 39t119 75.5l2 -106h102l137 993q-74 38 -173.5 60.5t-210.5 19.5t-207.5 -34.5t-167.5 -112.5t-88 -203q-10 -70 -29 -202.5t-27 -192.5zM258 328q10 75 29 211t26 186q11 79 61.5 133t120.5 76t149.5 26 t150.5 -10t120 -39l-98 -694q-38 -37 -98.5 -65t-125.5 -42t-130 -8.5t-114 28t-75 74t-16 124.5zM518 1430h164l127 -267h-119z" />
<glyph unicode="&#xe1;" horiz-adv-x="1042" d="M141 328q8 60 27 192.5t29 202.5q17 122 88 203t167.5 112.5t207.5 34.5t210.5 -19.5t173.5 -60.5l-137 -993h-102l-2 106q-47 -46 -119 -75.5t-150 -39t-154.5 6t-134.5 53t-88 109.5t-16 168zM258 328q-10 -73 16 -124.5t75 -74t114 -28t130 8.5t125.5 42t98.5 65 l98 694q-49 25 -120 39t-150.5 10t-149.5 -26t-120.5 -76t-61.5 -133q-7 -50 -26 -186t-29 -211zM573 1147l203 266h164l-248 -266h-119z" />
<glyph unicode="&#xe2;" horiz-adv-x="1042" d="M141 328q-14 -96 16 -168t88 -109.5t134.5 -53t154.5 -6t150 39t119 75.5l2 -106h102l137 993q-74 38 -173.5 60.5t-210.5 19.5t-207.5 -34.5t-167.5 -112.5t-88 -203q-10 -70 -29 -202.5t-27 -192.5zM258 328q10 75 29 211t26 186q11 79 61.5 133t120.5 76t149.5 26 t150.5 -10t120 -39l-98 -694q-38 -37 -98.5 -65t-125.5 -42t-130 -8.5t-114 28t-75 74t-16 124.5zM397 1151l256 244h144l186 -244h-135l-137 168l-176 -168h-138z" />
<glyph unicode="&#xe3;" horiz-adv-x="1042" d="M141 328q-14 -96 16 -168t88 -109.5t134.5 -53t154.5 -6t150 39t119 75.5l2 -106h102l137 993q-74 38 -173.5 60.5t-210.5 19.5t-207.5 -34.5t-167.5 -112.5t-88 -203q-10 -70 -29 -202.5t-27 -192.5zM258 328q10 75 29 211t26 186q11 79 61.5 133t120.5 76t149.5 26 t150.5 -10t120 -39l-98 -694q-38 -37 -98.5 -65t-125.5 -42t-130 -8.5t-114 28t-75 74t-16 124.5zM467 1198q15 45 44.5 75.5t64.5 42t74 7t73 -26.5q23 -16 48.5 -21.5t53.5 5t45 41.5l64 -29q-14 -44 -42 -72t-62 -37t-70 -4.5t-68 21.5q-121 70 -166 -24z" />
<glyph unicode="&#xe4;" horiz-adv-x="1042" d="M141 328q-14 -96 16 -168t88 -109.5t134.5 -53t154.5 -6t150 39t119 75.5l2 -106h102l137 993q-74 38 -173.5 60.5t-210.5 19.5t-207.5 -34.5t-167.5 -112.5t-88 -203q-10 -70 -29 -202.5t-27 -192.5zM258 328q10 75 29 211t26 186q11 79 61.5 133t120.5 76t149.5 26 t150.5 -10t120 -39l-98 -694q-38 -37 -98.5 -65t-125.5 -42t-130 -8.5t-114 28t-75 74t-16 124.5zM440 1272q4 35 33 59.5t64 24.5t55.5 -24.5t15.5 -59.5q-4 -35 -32.5 -59.5t-63.5 -24.5t-56 24.5t-16 59.5zM809 1272q4 35 32.5 59.5t63.5 24.5t56 -24.5t16 -59.5 q-4 -35 -32.5 -59.5t-63.5 -24.5t-56 24.5t-16 59.5z" />
<glyph unicode="&#xe5;" horiz-adv-x="1042" d="M141 328q-14 -96 16 -168t88 -109.5t134.5 -53t154.5 -6t150 39t119 75.5l2 -106h102l137 993q-74 38 -173.5 60.5t-210.5 19.5t-207.5 -34.5t-167.5 -112.5t-88 -203q-10 -70 -29 -202.5t-27 -192.5zM258 328q10 75 29 211t26 186q11 79 61.5 133t120.5 76t149.5 26 t150.5 -10t120 -39l-98 -694q-38 -37 -98.5 -65t-125.5 -42t-130 -8.5t-114 28t-75 74t-16 124.5zM518 1311q11 75 76 129.5t147 54.5q80 0 128.5 -55.5t37.5 -130.5q-9 -71 -73.5 -126t-143.5 -55q-82 0 -131.5 54t-40.5 129zM610 1309q-5 -40 21.5 -68.5t68.5 -28.5 q43 0 76.5 29.5t38.5 69.5q6 41 -19.5 69.5t-68.5 28.5q-44 0 -77.5 -29t-39.5 -71z" />
<glyph unicode="&#xe6;" horiz-adv-x="1693" d="M141 328l56 395q14 102 67 176t127 110.5t163 52.5t178 7.5t168.5 -31.5t137.5 -57q61 47 138.5 73t154 28t148.5 -19.5t124 -63.5t78.5 -111t14.5 -155q-12 -87 -54.5 -154.5t-102.5 -107t-134.5 -62t-151.5 -23.5t-151.5 14.5t-136.5 45.5l-19 -133q-6 -55 14 -98.5 t58 -68.5t85.5 -37.5t100.5 -12.5q91 0 170.5 36.5t120.5 105.5l94 -52q-59 -99 -169 -151.5t-232 -52.5q-177 0 -275 94l-8 -76h-100l-2 106q-47 -46 -119 -75.5t-150 -39t-154.5 6t-134.5 53t-88 109.5t-16 168zM258 328q-10 -73 16 -124.5t75 -74t114 -28t130 8.5 t125.5 42t98.5 65l72 508q12 86 57 156q-49 37 -125.5 57.5t-159 18.5t-157 -24t-127.5 -76t-64 -132zM979 553q58 -24 127 -39.5t148.5 -16t146.5 18.5t117 74.5t63 142.5q19 132 -84 201q-88 59 -215 43q-132 -17 -212 -105q-54 -61 -66 -145z" />
<glyph unicode="&#xe7;" horiz-adv-x="905" d="M143 328l58 407q12 83 56 150.5t107 108.5t137 63t150 22q115 0 206.5 -46.5t129.5 -135.5l-104 -61q-25 63 -92.5 96t-155.5 33q-75 0 -141.5 -23.5t-117 -76.5t-61.5 -126l-57 -415q-16 -109 60.5 -167.5t193.5 -58.5q99 0 183.5 42t117.5 122l98 -51 q-53 -104 -157 -161.5t-226 -63.5l-71 -90l4 -5q71 31 128 -11.5t44 -119.5q-14 -78 -76 -115.5t-139 -37.5q-85 0 -158 39l35 67q51 -30 129 -30q41 0 79.5 19t43.5 58q6 38 -26.5 56.5t-74 16.5t-71.5 -15l-23 26l111 142q-72 5 -134 28.5t-108 64.5t-67.5 105.5 t-10.5 143.5z" />
<glyph unicode="&#xe8;" horiz-adv-x="1009" d="M150 326q-12 -83 13 -150.5t76.5 -108.5t119.5 -63t145 -22q122 0 232 52.5t169 151.5l-94 52q-41 -69 -120.5 -105.5t-170.5 -36.5q-54 0 -102 13.5t-86.5 40.5t-57 72.5t-10.5 103.5q2 19 8.5 60t8.5 60q62 -30 136.5 -45.5t151.5 -14.5t151.5 23.5t134.5 62t102.5 107 t54.5 154.5q25 175 -100 272q-105 82 -267 77q-167 -5 -290 -100q-127 -98 -150 -257q-9 -65 -27.5 -199t-27.5 -200zM295 553l24 174q19 135 142 205q107 61 232 45q122 -17 176 -99q40 -61 28 -145q-13 -87 -63 -142.5t-117 -74.5t-146.5 -18.5t-148.5 16t-127 39.5z M475 1415h164l127 -266h-119z" />
<glyph unicode="&#xe9;" horiz-adv-x="1009" d="M150 326q9 66 27.5 200t27.5 199q26 178 180 278q131 85 295 79q160 -6 254 -96q100 -96 78 -253q-12 -87 -54.5 -154.5t-102.5 -107t-134.5 -62t-151.5 -23.5t-151.5 14.5t-136.5 45.5q-2 -19 -8.5 -60t-8.5 -60q-8 -58 10.5 -103.5t57 -72.5t86.5 -40.5t102 -13.5 q91 0 170.5 36.5t120.5 105.5l94 -52q-59 -99 -169 -151.5t-232 -52.5q-77 0 -145 22t-119.5 63t-76.5 108.5t-13 150.5zM295 553q58 -24 127 -39.5t148.5 -16t146.5 18.5t117 74.5t63 142.5q19 132 -83 200q-89 59 -216 44q-132 -16 -212 -104q-55 -63 -67 -146zM571 1161 l203 266h164l-248 -266h-119z" />
<glyph unicode="&#xea;" horiz-adv-x="1009" d="M150 326q-12 -83 13 -150.5t76.5 -108.5t119.5 -63t145 -22q122 0 232 52.5t169 151.5l-94 52q-41 -69 -120.5 -105.5t-170.5 -36.5q-54 0 -102 13.5t-86.5 40.5t-57 72.5t-10.5 103.5q2 19 8.5 60t8.5 60q62 -30 136.5 -45.5t151.5 -14.5t151.5 23.5t134.5 62t102.5 107 t54.5 154.5q25 175 -100 272q-105 82 -267 77q-167 -5 -290 -100q-127 -98 -150 -257q-9 -65 -27.5 -199t-27.5 -200zM295 553l24 174q19 135 142 205q107 61 232 45q122 -17 176 -99q40 -61 28 -145q-13 -87 -63 -142.5t-117 -74.5t-146.5 -18.5t-148.5 16t-127 39.5z M379 1155l242 225h139l182 -225h-131l-135 156l-166 -156h-131z" />
<glyph unicode="&#xeb;" horiz-adv-x="1009" d="M150 326q-12 -83 13 -150.5t76.5 -108.5t119.5 -63t145 -22q122 0 232 52.5t169 151.5l-94 52q-41 -69 -120.5 -105.5t-170.5 -36.5q-54 0 -102 13.5t-86.5 40.5t-57 72.5t-10.5 103.5q2 19 8.5 60t8.5 60q62 -30 136.5 -45.5t151.5 -14.5t151.5 23.5t134.5 62t102.5 107 t54.5 154.5q25 175 -100 272q-105 82 -267 77q-167 -5 -290 -100q-127 -98 -150 -257q-9 -65 -27.5 -199t-27.5 -200zM295 553l24 174q19 135 142 205q107 61 232 45q122 -17 176 -99q40 -61 28 -145q-13 -87 -63 -142.5t-117 -74.5t-146.5 -18.5t-148.5 16t-127 39.5z M416 1268q4 32 32 53.5t64 21.5q35 0 55.5 -21.5t16.5 -53.5q-3 -32 -31.5 -55t-63.5 -23t-55.5 22.5t-17.5 55.5zM782 1268q4 32 32.5 53.5t64.5 21.5q35 0 55.5 -21.5t15.5 -53.5q-3 -32 -31 -55t-63 -23t-56 22.5t-18 55.5z" />
<glyph unicode="&#xec;" horiz-adv-x="491" d="M184 0l131 946h123l-131 -946h-123zM195 1288h149l111 -229h-103z" />
<glyph unicode="&#xed;" horiz-adv-x="491" d="M184 0l131 946h123l-131 -946h-123zM336 1059l176 229h150l-224 -229h-102z" />
<glyph unicode="&#xee;" horiz-adv-x="491" d="M137 1055l228 221h127l167 -221h-120l-125 151l-156 -151h-121zM184 0l131 946h123l-131 -946h-123z" />
<glyph unicode="&#xef;" horiz-adv-x="489" d="M184 0l131 946h123l-131 -946h-123zM201 1139q3 31 27.5 52t56.5 21q30 0 48 -21t15 -52q-4 -32 -28.5 -53t-55.5 -21q-32 0 -50 21t-13 53zM463 1139q3 31 27.5 52t56.5 21q30 0 48 -21t15 -52q-4 -32 -28.5 -53t-55.5 -21q-32 0 -50 21t-13 53z" />
<glyph unicode="&#xf0;" horiz-adv-x="1077" d="M186 328q9 64 21.5 155.5t21.5 155.5q16 106 85.5 185.5t164 117.5t197.5 37q155 0 274 -64l31 215q11 79 -27.5 131.5t-111.5 77.5l-74 -163l-88 32l72 150q-88 6 -173 -21.5t-135 -81.5l-67 72q77 74 192.5 110t229.5 27l63 138l86 -31l-55 -125q105 -33 162 -113.5 t39 -202.5l-150 -1060q-68 -22 -117 -35q-171 -47 -299 -47q-101 1 -182.5 38t-128 115.5t-31.5 186.5zM299 326q-16 -108 57.5 -167t188.5 -59q145 0 301 62q54 397 90 645q-127 59 -281 59q-114 -2 -205.5 -60t-107.5 -165v-2q-9 -64 -21.5 -155.5t-21.5 -155.5v-2z" />
<glyph unicode="&#xf1;" horiz-adv-x="1089" d="M143 0h115l123 885q154 61 301 61q112 0 188 -59t60 -168l-101 -719h115l100 719q11 82 -13 148t-74.5 107t-116.5 63t-142 24q-161 0 -417 -84zM498 1159q20 60 61 94.5t86.5 34t89.5 -27.5q22 -16 45 -22.5t49 4t43 42.5l58 -29q-19 -60 -58.5 -90.5t-83.5 -29.5 t-83 26q-111 69 -152 -26z" />
<glyph unicode="&#xf2;" horiz-adv-x="1030" d="M158 324q-12 -83 13 -150.5t76.5 -109.5t119.5 -64t145 -23q77 1 151 23t137 64t107 109t56 151q9 65 29.5 210t29.5 209q11 84 -14 151t-76.5 109t-119 64t-144.5 23q-77 -1 -151 -23t-137.5 -64t-107.5 -109.5t-55 -150.5q-9 -65 -29.5 -210t-29.5 -209zM272 324 q9 64 30 209t30 210q11 77 62.5 131t117 76.5t139.5 22.5q53 0 101 -13.5t86.5 -40.5t57.5 -72.5t11 -103.5q-9 -64 -29.5 -209t-29.5 -210q-11 -77 -63 -131.5t-118 -77.5t-139 -23q-54 0 -102 14t-86.5 41t-57 73t-10.5 104zM492 1366h163l97 -225h-119z" />
<glyph unicode="&#xf3;" horiz-adv-x="1030" d="M158 324q9 64 29.5 209t29.5 210q11 83 55 150.5t107.5 109.5t137.5 64t151 23q77 -1 144.5 -23t119 -64t76.5 -109t14 -151q-9 -64 -29.5 -209t-29.5 -210q-12 -84 -56 -151t-107 -109t-137 -64t-151 -23q-77 1 -145 23t-119.5 64t-76.5 109.5t-13 150.5zM272 324 q-8 -58 10.5 -104t57 -73t86.5 -41t102 -14q73 0 139 23t118 77.5t63 131.5q9 65 29.5 210t29.5 209q8 58 -11 103.5t-57.5 72.5t-86.5 40.5t-101 13.5q-74 0 -139.5 -22.5t-117 -76.5t-62.5 -131q-9 -65 -30 -210t-30 -209zM594 1147l160 225h164l-205 -225h-119z" />
<glyph unicode="&#xf4;" horiz-adv-x="1030" d="M158 324q-12 -83 13 -150.5t76.5 -109.5t119.5 -64t145 -23q77 1 151 23t137 64t107 109t56 151q9 65 29.5 210t29.5 209q11 84 -14 151t-76.5 109t-119 64t-144.5 23q-77 -1 -151 -23t-137.5 -64t-107.5 -109.5t-55 -150.5q-9 -65 -29.5 -210t-29.5 -209zM272 324 q9 64 30 209t30 210q11 77 62.5 131t117 76.5t139.5 22.5q53 0 101 -13.5t86.5 -40.5t57.5 -72.5t11 -103.5q-9 -64 -29.5 -209t-29.5 -210q-11 -77 -63 -131.5t-118 -77.5t-139 -23q-54 0 -102 14t-86.5 41t-57 73t-10.5 104zM428 1135l221 208h123l158 -208h-115l-121 133 l-147 -133h-119z" />
<glyph unicode="&#xf5;" horiz-adv-x="1030" d="M158 324q-12 -83 13 -150.5t76.5 -109.5t119.5 -64t145 -23q77 1 151 23t137 64t107 109t56 151q9 65 29.5 210t29.5 209q11 84 -14 151t-76.5 109t-119 64t-144.5 23q-77 -1 -151 -23t-137.5 -64t-107.5 -109.5t-55 -150.5q-9 -65 -29.5 -210t-29.5 -209zM272 324 q9 64 30 209t30 210q11 77 62.5 131t117 76.5t139.5 22.5q53 0 101 -13.5t86.5 -40.5t57.5 -72.5t11 -103.5q-9 -64 -29.5 -209t-29.5 -210q-11 -77 -63 -131.5t-118 -77.5t-139 -23q-54 0 -102 14t-86.5 41t-57 73t-10.5 104zM467 1176q16 47 44.5 79t62 44.5t70 8 t67.5 -27.5q22 -17 46 -23.5t50.5 4.5t42.5 44l59 -29q-19 -62 -59 -93.5t-85 -30.5t-85 26q-113 74 -156 -27z" />
<glyph unicode="&#xf6;" horiz-adv-x="1030" d="M158 324q-12 -83 13 -150.5t76.5 -109.5t119.5 -64t145 -23q77 1 151 23t137 64t107 109t56 151q9 65 29.5 210t29.5 209q11 84 -14 151t-76.5 109t-119 64t-144.5 23q-77 -1 -151 -23t-137.5 -64t-107.5 -109.5t-55 -150.5q-9 -65 -29.5 -210t-29.5 -209zM272 324 q9 64 30 209t30 210q11 77 62.5 131t117 76.5t139.5 22.5q53 0 101 -13.5t86.5 -40.5t57.5 -72.5t11 -103.5q-9 -64 -29.5 -209t-29.5 -210q-11 -77 -63 -131.5t-118 -77.5t-139 -23q-54 0 -102 14t-86.5 41t-57 73t-10.5 104zM451 1212q5 31 29 52.5t55 21.5q32 0 51 -21.5 t14 -52.5q-4 -32 -29 -53.5t-57 -21.5q-31 0 -49 21.5t-14 53.5zM778 1212q5 31 29 52.5t55 21.5q32 0 51.5 -21.5t14.5 -52.5q-4 -32 -29 -53.5t-57 -21.5q-31 0 -49.5 21.5t-14.5 53.5z" />
<glyph unicode="&#xf7;" horiz-adv-x="1081" d="M180 616l17 123h888l-16 -123h-889zM494 350q6 44 40.5 73.5t77.5 31.5q42 0 68.5 -31t21.5 -74q-6 -43 -41.5 -73.5t-78.5 -30.5t-68.5 30.5t-19.5 73.5zM582 981q6 43 40.5 73.5t77.5 30.5t70 -30.5t21 -73.5t-41 -73.5t-78 -30.5t-69.5 30.5t-20.5 73.5z" />
<glyph unicode="&#xf8;" horiz-adv-x="1030" d="M158 324l59 419q11 83 55 150.5t107.5 109.5t137.5 64t151 23q84 -3 151 -27l86 156l94 -37l-92 -162q138 -94 115 -277l-59 -419q-12 -84 -56 -151t-107 -109t-137 -64t-151 -23q-89 3 -162 27l-78 -139l-84 37l80 145q-136 94 -110 277zM272 324q-14 -104 54 -168 l436 800q-59 17 -111 17q-74 0 -139.5 -22.5t-117 -76.5t-62.5 -131zM408 111q59 -19 120 -19q73 0 139 23t118 77.5t63 131.5l59 419q14 103 -59 166z" />
<glyph unicode="&#xf9;" horiz-adv-x="1058" d="M176 324q-12 -82 12 -148.5t74 -107.5t116 -63t142 -23q132 0 299 47q30 8 121 34l139 998h-114l-127 -903q-161 -64 -301 -64q-114 2 -188 60.5t-60 164.5l2 5l102 737h-114zM522 1329h156l98 -209h-114z" />
<glyph unicode="&#xfa;" horiz-adv-x="1058" d="M176 324l103 737h114l-102 -737l-2 -5q-14 -106 60 -164.5t188 -60.5q140 0 301 64l127 903h114l-139 -998q-91 -26 -121 -34q-167 -47 -299 -47q-76 1 -142 23t-116 63t-74 107.5t-12 148.5zM586 1120l159 209h156l-201 -209h-114z" />
<glyph unicode="&#xfb;" horiz-adv-x="1058" d="M176 324q-12 -82 12 -148.5t74 -107.5t116 -63t142 -23q132 0 299 47q30 8 121 34l139 998h-114l-127 -903q-161 -64 -301 -64q-114 2 -188 60.5t-60 164.5l2 5l102 737h-114zM440 1124l222 209h124l166 -209h-118l-123 144l-152 -144h-119z" />
<glyph unicode="&#xfc;" horiz-adv-x="1058" d="M176 324q-12 -82 12 -148.5t74 -107.5t116 -63t142 -23q132 0 299 47q30 8 121 34l139 1000h-114l-127 -905q-161 -64 -301 -64q-114 2 -188 60.5t-60 164.5l2 5l102 739h-114zM473 1210q3 30 28 52t56 22q30 0 48.5 -21.5t15.5 -52.5q-4 -32 -29.5 -53.5t-56.5 -21.5 t-48.5 21.5t-13.5 53.5zM799 1210q3 30 28 52t56 22q32 0 50 -21.5t15 -52.5q-4 -32 -29.5 -53.5t-58.5 -21.5q-31 0 -48.5 21.5t-12.5 53.5z" />
<glyph unicode="&#xfd;" horiz-adv-x="1062" d="M131 -248l94 76q26 -41 78 -68t114.5 -36t130 1.5t124 37.5t97.5 78t50 118l12 94q-67 -39 -140 -53t-165 -16q-79 -1 -149.5 22.5t-122.5 67.5t-77 112.5t-13 151.5l100 723h119l-100 -723l-2 -4q-16 -110 62.5 -170t197.5 -62q156 0 307 62l125 897h117l-154 -1102 q-14 -96 -67 -170t-127 -114t-162.5 -56t-172.5 -5.5t-158 46.5t-118 92zM612 1116l160 215h164l-205 -215h-119z" />
<glyph unicode="&#xfe;" horiz-adv-x="1067" d="M84 -401q43 308 130 924.5t130 924.5h115l-60 -426q145 37 299 37q76 -1 143 -22.5t118.5 -62.5t76 -107.5t13.5 -149.5q-9 -66 -28 -197t-28 -196q-16 -107 -86.5 -188t-166 -120.5t-199.5 -38.5q-149 3 -281 66l-61 -444h-115zM276 154q132 -60 285 -60q116 2 208 60 t105 165l3 5q9 65 27.5 196t27.5 197v4q16 107 -58.5 165t-191.5 58q-193 0 -299 -35q-20 -141 -57 -401.5t-50 -353.5z" />
<glyph unicode="&#xff;" horiz-adv-x="1062" d="M131 -248l94 76q26 -41 78 -68t114.5 -36t130 1.5t124 37.5t97.5 78t50 118l12 94q-67 -39 -140 -53t-165 -16q-79 -1 -149.5 22.5t-122.5 67.5t-77 112.5t-13 151.5l100 723h119l-100 -723l-2 -4q-16 -110 62.5 -170t197.5 -62q156 0 307 62l125 897h117l-154 -1102 q-14 -96 -67 -170t-127 -114t-162.5 -56t-172.5 -5.5t-158 46.5t-118 92zM475 1237q5 31 29 52.5t55 21.5t49 -21.5t13 -52.5q-3 -30 -27 -51t-55 -21t-49 20.5t-15 51.5zM797 1237q5 31 28.5 52.5t53.5 21.5q31 0 49.5 -21.5t13.5 -52.5q-3 -30 -27 -51t-55 -21 q-73 0 -63 72z" />
<glyph unicode="&#x152;" horiz-adv-x="1964" d="M178 420l86 606q15 107 75.5 193t149 139.5t193 82t213.5 29.5q182 0 276 -67l7 45h907l-17 -121h-786l-78 -545h723l-16 -120h-723l-76 -543h786l-18 -121h-907l6 35q-123 -62 -303 -58q-108 2 -203 31t-167 83t-107.5 140t-20.5 191zM299 420q-10 -76 17.5 -137.5 t81.5 -100t128 -61.5t154 -25.5t163 14t152 50.5l160 1132q-111 61 -274 58q-87 0 -168.5 -19.5t-151.5 -57.5t-117.5 -102t-58.5 -145z" />
<glyph unicode="&#x153;" horiz-adv-x="1705" d="M156 324l59 419q11 83 55 150.5t107.5 109.5t137.5 64t151 23q108 -2 200.5 -49.5t122.5 -127.5q44 56 109.5 95.5t136 54.5t143.5 14.5t136.5 -26t111 -66t70.5 -106.5t12 -146q-12 -87 -54.5 -154.5t-102.5 -107t-134.5 -62t-151.5 -23.5t-151.5 14.5t-136.5 45.5 l-16 -122l-3 -11q-8 -73 30 -124t97 -72t132 -21q91 0 170 36.5t120 105.5l95 -52q-59 -98 -169.5 -151t-232.5 -53q-110 0 -198 44t-123 134q-106 -179 -369 -183q-77 1 -145 23t-119.5 64t-76.5 109.5t-13 150.5zM270 324q-8 -58 10.5 -104t57 -73t86.5 -41t102 -14 q73 0 139 23t118 77.5t63 131.5l59 419q8 58 -11 103.5t-57.5 72.5t-86.5 40.5t-101 13.5q-74 0 -139.5 -22.5t-117 -76.5t-62.5 -131zM991 553q58 -24 127 -39.5t148.5 -16t146.5 18.5t117 74.5t63 142.5q19 132 -84 201q-88 59 -215 43q-132 -17 -212 -105 q-54 -61 -66 -145z" />
<glyph unicode="&#x178;" horiz-adv-x="1142" d="M209 1450h141l318 -762l528 762h143l-630 -883l-78 -567h-121l78 567zM510 1632q5 35 32 59.5t62 24.5t56.5 -24.5t17.5 -59.5q-6 -35 -33.5 -59.5t-62.5 -24.5t-56.5 24.5t-15.5 59.5zM924 1632q5 35 32 59.5t62 24.5t56.5 -24.5t17.5 -59.5q-6 -35 -34 -59.5t-63 -24.5 t-56 24.5t-15 59.5z" />
<glyph unicode="&#x2c6;" horiz-adv-x="536" d="M137 1206l256 244h144l186 -244h-135l-137 168l-177 -168h-137z" />
<glyph unicode="&#x2dc;" horiz-adv-x="555" d="M205 1307q16 47 48.5 79t71 44.5t81 8t79.5 -27.5q26 -17 54 -23.5t58.5 4.5t49.5 44l70 -29q-20 -62 -67 -93.5t-99 -30.5t-100 26q-25 14 -49 22t-49.5 8.5t-47 -14t-35.5 -43.5z" />
<glyph unicode="&#x2000;" horiz-adv-x="944" />
<glyph unicode="&#x2001;" horiz-adv-x="1888" />
<glyph unicode="&#x2002;" horiz-adv-x="944" />
<glyph unicode="&#x2003;" horiz-adv-x="1888" />
<glyph unicode="&#x2004;" horiz-adv-x="629" />
<glyph unicode="&#x2005;" horiz-adv-x="472" />
<glyph unicode="&#x2006;" horiz-adv-x="314" />
<glyph unicode="&#x2007;" horiz-adv-x="314" />
<glyph unicode="&#x2008;" horiz-adv-x="236" />
<glyph unicode="&#x2009;" horiz-adv-x="377" />
<glyph unicode="&#x200a;" horiz-adv-x="104" />
<glyph unicode="&#x2010;" horiz-adv-x="681" d="M166 555l16 119h506l-16 -119h-506z" />
<glyph unicode="&#x2011;" horiz-adv-x="681" d="M166 555l16 119h506l-16 -119h-506z" />
<glyph unicode="&#x2012;" horiz-adv-x="681" d="M166 555l16 119h506l-16 -119h-506z" />
<glyph unicode="&#x2013;" horiz-adv-x="1024" d="M117 555l16 117h950l-16 -117h-950z" />
<glyph unicode="&#x2014;" horiz-adv-x="1884" d="M102 555l17 117h1835l-17 -117h-1835z" />
<glyph unicode="&#x2018;" horiz-adv-x="448" d="M236 983l221 467h123l-197 -467h-147z" />
<glyph unicode="&#x2019;" horiz-adv-x="466" d="M231 983l195 467h149l-223 -467h-121z" />
<glyph unicode="&#x201a;" horiz-adv-x="499" d="M53 -283l191 437h149l-219 -437h-121z" />
<glyph unicode="&#x201c;" horiz-adv-x="802" d="M254 983l223 467h121l-195 -467h-149zM567 983l224 467h120l-194 -467h-150z" />
<glyph unicode="&#x201d;" horiz-adv-x="886" d="M283 983l194 467h150l-224 -467h-120zM590 983l194 467h150l-223 -467h-121z" />
<glyph unicode="&#x201e;" horiz-adv-x="964" d="M127 -283l188 428h150l-217 -428h-121zM463 -283l188 428h150l-217 -428h-121z" />
<glyph unicode="&#x2022;" horiz-adv-x="876" d="M231 725q17 123 117 210t223 87t197 -87t57 -210t-116 -210t-222 -87t-198 87t-58 210z" />
<glyph unicode="&#x2026;" horiz-adv-x="1437" d="M190 86q6 41 39 69.5t74 28.5t65.5 -28.5t18.5 -69.5q-4 -41 -37 -69.5t-74 -28.5t-66 28.5t-20 69.5zM618 86q6 41 39 69.5t74 28.5t65.5 -28.5t18.5 -69.5q-4 -41 -36.5 -69.5t-73.5 -28.5t-66.5 28.5t-20.5 69.5zM1044 86q6 41 39 69.5t74 28.5t65.5 -28.5t18.5 -69.5 q-4 -41 -37 -69.5t-74 -28.5t-66 28.5t-20 69.5z" />
<glyph unicode="&#x202f;" horiz-adv-x="377" />
<glyph unicode="&#x2039;" horiz-adv-x="530" d="M156 604l338 416l90 -59l-293 -357l194 -356l-108 -60z" />
<glyph unicode="&#x203a;" horiz-adv-x="532" d="M115 248l293 356l-195 357l106 59l224 -416l-340 -416z" />
<glyph unicode="&#x205f;" horiz-adv-x="472" />
<glyph unicode="&#x20ac;" horiz-adv-x="1191" d="M119 578l33 90h114l17 110h-129l32 92h109l22 156q13 94 57.5 172.5t108 132t142.5 88.5t161.5 46.5t165 1.5t151.5 -41t123 -87t79 -131l-115 -55q-27 75 -91 123.5t-142.5 64.5t-166 3t-161 -51.5t-127.5 -108t-66 -158.5l-22 -156h555l-33 -92h-535l-16 -110h557 l-31 -90h-538l-23 -156q-10 -70 8 -127.5t55.5 -96t91 -63t114 -32t125.5 0.5t125 31.5t112.5 64.5t87.5 95l100 -53q-46 -74 -115.5 -130t-148 -87.5t-163.5 -42.5t-164.5 0t-149 45.5t-118 87t-70.5 132.5t-9 175l23 156h-135z" />
<glyph unicode="&#x2122;" horiz-adv-x="1697" d="M227 1352l15 100h639l-15 -100h-266l-98 -699h-107l99 699h-267zM868 653l113 799h123l180 -571l340 571h125l-113 -799h-108l96 623l-313 -526h-90l-164 518l-82 -615h-107z" />
<glyph unicode="&#xe000;" horiz-adv-x="1064" d="M0 0v1065h1065v-1065h-1065z" />
</font>
</defs>
</svg>
